{
	"asset":{
		"generator":"Khronos glTF Blender I/O v5.0.21",
		"version":"2.0"
	},
	"extensionsUsed":[
		"KHR_materials_clearcoat",
		"KHR_materials_specular",
		"KHR_materials_ior"
	],
	"scene":0,
	"scenes":[
		{
			"name":"Scene",
			"nodes":[
				66
			]
		}
	],
	"nodes":[
		{
			"mesh":0,
			"name":"Cube.001",
			"translation":[
				0,
				1.87701416015625,
				-12.437542915344238
			]
		},
		{
			"mesh":1,
			"name":"Cube.002",
			"translation":[
				-5.784946441650391,
				1.8301286697387695,
				4.888195991516113
			]
		},
		{
			"mesh":2,
			"name":"Cube.003",
			"translation":[
				-5.784966468811035,
				1.2573695182800293,
				4.012942314147949
			]
		},
		{
			"mesh":3,
			"name":"Cube.004",
			"translation":[
				-5.784966468811035,
				1.2573695182800293,
				4.525802135467529
			]
		},
		{
			"mesh":4,
			"name":"Cube.005",
			"translation":[
				-5.784966468811035,
				1.2573695182800293,
				4.474499225616455
			]
		},
		{
			"mesh":5,
			"name":"Cube.006",
			"translation":[
				-5.784966468811035,
				1.2573695182800293,
				4.425722599029541
			]
		},
		{
			"mesh":6,
			"name":"Cube.007",
			"translation":[
				0,
				6.754106521606445,
				-15.950091361999512
			]
		},
		{
			"mesh":7,
			"name":"Cube.012",
			"translation":[
				0,
				1.6112782955169678,
				-1.327260136604309
			]
		},
		{
			"mesh":8,
			"name":"Cube.013",
			"translation":[
				-17.117982864379883,
				3.314795732498169,
				-4.593157768249512
			]
		},
		{
			"mesh":9,
			"name":"Cube.014",
			"translation":[
				-5.721139430999756,
				1.9151995182037354,
				1.9649767875671387
			]
		},
		{
			"mesh":10,
			"name":"Cube.015",
			"translation":[
				-12.072835922241211,
				2.8623664379119873,
				-2.487661838531494
			]
		},
		{
			"mesh":11,
			"name":"Cube.016",
			"translation":[
				-8.332555770874023,
				2.6913130283355713,
				-1.34294593334198
			]
		},
		{
			"mesh":12,
			"name":"Cube.017",
			"translation":[
				-4.943227767944336,
				2.4518675804138184,
				-0.5848067402839661
			]
		},
		{
			"mesh":13,
			"name":"Cube.018",
			"translation":[
				0,
				5.391441345214844,
				12.53621768951416
			]
		},
		{
			"mesh":14,
			"name":"Cube.019",
			"translation":[
				0,
				5.482541084289551,
				-5.427305698394775
			]
		},
		{
			"mesh":15,
			"name":"Cube.020",
			"translation":[
				0,
				5.236825942993164,
				-2.3013129234313965
			]
		},
		{
			"mesh":16,
			"name":"Cube.021",
			"translation":[
				0,
				5.236825942993164,
				0.2072409689426422
			]
		},
		{
			"mesh":17,
			"name":"Cube.022",
			"translation":[
				0,
				1.1644299030303955,
				-3.9686226844787598
			]
		},
		{
			"mesh":18,
			"name":"Cube.023",
			"translation":[
				-4.130553722381592,
				2.7934553623199463,
				1.6056849956512451
			]
		},
		{
			"mesh":19,
			"name":"Cube.024",
			"translation":[
				5.784943580627441,
				1.8301286697387695,
				4.888195991516113
			]
		},
		{
			"mesh":20,
			"name":"Cube.025",
			"translation":[
				5.784964561462402,
				1.2573695182800293,
				4.012942314147949
			]
		},
		{
			"mesh":21,
			"name":"Cube.026",
			"translation":[
				5.784964561462402,
				1.2573695182800293,
				4.525802135467529
			]
		},
		{
			"mesh":22,
			"name":"Cube.027",
			"translation":[
				5.784964561462402,
				1.2573695182800293,
				4.474499225616455
			]
		},
		{
			"mesh":23,
			"name":"Cube.028",
			"translation":[
				5.784964561462402,
				1.2573695182800293,
				4.425722599029541
			]
		},
		{
			"mesh":24,
			"name":"Cube.029",
			"translation":[
				17.11797523498535,
				3.314795732498169,
				-4.593157768249512
			]
		},
		{
			"mesh":25,
			"name":"Cube.030",
			"translation":[
				5.721137046813965,
				1.9151995182037354,
				1.9649769067764282
			]
		},
		{
			"mesh":26,
			"name":"Cube.031",
			"translation":[
				12.072833061218262,
				2.8623664379119873,
				-2.487661838531494
			]
		},
		{
			"mesh":27,
			"name":"Cube.032",
			"translation":[
				8.332551002502441,
				2.6913130283355713,
				-1.3429460525512695
			]
		},
		{
			"mesh":28,
			"name":"Cube.033",
			"translation":[
				4.943224906921387,
				2.4518675804138184,
				-0.5848067998886108
			]
		},
		{
			"mesh":29,
			"name":"Cube.034",
			"translation":[
				4.130551338195801,
				2.7934553623199463,
				1.6056849956512451
			]
		},
		{
			"mesh":30,
			"name":"Cube.036",
			"translation":[
				0,
				4.317293167114258,
				-17.41970443725586
			]
		},
		{
			"mesh":31,
			"name":"Cylinder",
			"translation":[
				0,
				3.2596895694732666,
				9.990683555603027
			]
		},
		{
			"mesh":32,
			"name":"Cylinder.001",
			"translation":[
				-5.784946918487549,
				1.206963300704956,
				5.396439552307129
			]
		},
		{
			"mesh":33,
			"name":"Cylinder.002",
			"translation":[
				-5.784946441650391,
				1.2577149868011475,
				4.2475266456604
			]
		},
		{
			"mesh":34,
			"name":"Cylinder.003",
			"translation":[
				-6.202396869659424,
				1.6382689476013184,
				5.599091053009033
			]
		},
		{
			"name":"Cylinder.004",
			"rotation":[
				0.7071068286895752,
				0,
				0,
				0.7071068286895752
			],
			"scale":[
				0.44677671790122986,
				0.44677671790122986,
				0.44677671790122986
			],
			"translation":[
				-5.784946918487549,
				1.2577154636383057,
				5.703261375427246
			]
		},
		{
			"mesh":35,
			"name":"Cylinder.005",
			"translation":[
				0,
				3.2596895694732666,
				9.990683555603027
			]
		},
		{
			"mesh":36,
			"name":"Cylinder.011",
			"translation":[
				0,
				3.2596895694732666,
				9.990683555603027
			]
		},
		{
			"mesh":37,
			"name":"Cylinder.012",
			"translation":[
				0,
				3.2596895694732666,
				9.990683555603027
			]
		},
		{
			"mesh":38,
			"name":"Cylinder.013",
			"translation":[
				-15.797780990600586,
				3.2299115657806396,
				-4.59403133392334
			]
		},
		{
			"mesh":39,
			"name":"Cylinder.014",
			"translation":[
				-12.069486618041992,
				2.8198018074035645,
				-4.045725345611572
			]
		},
		{
			"mesh":40,
			"name":"Cylinder.015",
			"translation":[
				-8.33047866821289,
				2.6234867572784424,
				-2.853071928024292
			]
		},
		{
			"mesh":41,
			"name":"Cylinder.016",
			"translation":[
				-4.941517353057861,
				2.407073497772217,
				-2.1350133419036865
			]
		},
		{
			"mesh":42,
			"name":"Cylinder.017",
			"translation":[
				5.784943580627441,
				1.206963300704956,
				5.396439552307129
			]
		},
		{
			"mesh":43,
			"name":"Cylinder.018",
			"translation":[
				5.784943580627441,
				1.2577149868011475,
				4.2475266456604
			]
		},
		{
			"mesh":44,
			"name":"Cylinder.019",
			"translation":[
				6.202393531799316,
				1.6382689476013184,
				5.599091053009033
			]
		},
		{
			"name":"Cylinder.020",
			"rotation":[
				-0.7071068286895752,
				0,
				0,
				0.7071068286895752
			],
			"scale":[
				-0.44677671790122986,
				-0.44677671790122986,
				-0.44677671790122986
			],
			"translation":[
				5.784943580627441,
				1.2577154636383057,
				5.703261375427246
			]
		},
		{
			"mesh":45,
			"name":"Cylinder.021",
			"translation":[
				15.797779083251953,
				3.2299115657806396,
				-4.59403133392334
			]
		},
		{
			"mesh":46,
			"name":"Cylinder.022",
			"translation":[
				12.069483757019043,
				2.8198018074035645,
				-4.045725345611572
			]
		},
		{
			"mesh":47,
			"name":"Cylinder.023",
			"translation":[
				8.330475807189941,
				2.6234867572784424,
				-2.853071689605713
			]
		},
		{
			"mesh":48,
			"name":"Cylinder.024",
			"translation":[
				4.941514015197754,
				2.407073497772217,
				-2.1350138187408447
			]
		},
		{
			"mesh":49,
			"name":"Cylinder.025",
			"translation":[
				0,
				4.330148696899414,
				-19.71864128112793
			]
		},
		{
			"mesh":50,
			"name":"Cylinder.026",
			"translation":[
				0,
				3.462996244430542,
				15.544405937194824
			]
		},
		{
			"mesh":51,
			"name":"Cylinder.027",
			"translation":[
				0,
				3.2596895694732666,
				9.990683555603027
			]
		},
		{
			"mesh":52,
			"name":"Cylinder.028",
			"translation":[
				0,
				3.2596895694732666,
				9.990683555603027
			]
		},
		{
			"mesh":53,
			"name":"Cylinder.029",
			"translation":[
				0,
				3.2596895694732666,
				9.990683555603027
			]
		},
		{
			"mesh":54,
			"name":"Cylinder.030",
			"translation":[
				0,
				3.2596895694732666,
				9.990683555603027
			]
		},
		{
			"mesh":55,
			"name":"Cylinder.031",
			"translation":[
				0,
				2.8433539867401123,
				17.239627838134766
			]
		},
		{
			"mesh":56,
			"name":"Cylinder.032",
			"translation":[
				0,
				3.2596895694732666,
				9.990683555603027
			]
		},
		{
			"mesh":57,
			"name":"Cylinder.033",
			"translation":[
				0,
				3.2596895694732666,
				9.990683555603027
			]
		},
		{
			"mesh":58,
			"name":"Cylinder.034",
			"translation":[
				0,
				2.8433539867401123,
				17.20277976989746
			]
		},
		{
			"mesh":59,
			"name":"Cylinder.035",
			"translation":[
				0,
				3.2596895694732666,
				9.990683555603027
			]
		},
		{
			"mesh":60,
			"name":"NurbsPath",
			"translation":[
				-5.784946441650391,
				1.7739365100860596,
				4.215939998626709
			]
		},
		{
			"mesh":61,
			"name":"NurbsPath.002",
			"translation":[
				5.784943580627441,
				1.7739365100860596,
				4.215939998626709
			]
		},
		{
			"mesh":62,
			"name":"Plane",
			"translation":[
				-8.459357261657715,
				3.0035393238067627,
				-0.5927268862724304
			]
		},
		{
			"mesh":63,
			"name":"Plane.001",
			"translation":[
				8.45935344696045,
				3.0035393238067627,
				-0.5927267074584961
			]
		},
		{
			"children":[
				0,
				1,
				2,
				3,
				4,
				5,
				6,
				7,
				8,
				9,
				10,
				11,
				12,
				13,
				14,
				15,
				16,
				17,
				18,
				19,
				20,
				21,
				22,
				23,
				24,
				25,
				26,
				27,
				28,
				29,
				30,
				31,
				32,
				33,
				34,
				35,
				36,
				37,
				38,
				39,
				40,
				41,
				42,
				43,
				44,
				45,
				46,
				47,
				48,
				49,
				50,
				51,
				52,
				53,
				54,
				55,
				56,
				57,
				58,
				59,
				60,
				61,
				62,
				63,
				64,
				65
			],
			"name":"A320-200",
			"translation":[
				-4.373841285705566,
				0,
				-2.2427306175231934
			]
		}
	],
	"materials":[
		{
			"doubleSided":true,
			"name":"Body_5"
		},
		{
			"doubleSided":true,
			"extensions":{
				"KHR_materials_clearcoat":{
					"clearcoatRoughnessFactor":0
				},
				"KHR_materials_specular":{
					"specularFactor":0
				},
				"KHR_materials_ior":{
					"ior":1.4500000476837158
				}
			},
			"name":"Body Inside",
			"pbrMetallicRoughness":{
				"baseColorFactor":[
					1,
					0.9281811118125916,
					0.9281811118125916,
					1
				],
				"roughnessFactor":0
			}
		},
		{
			"doubleSided":true,
			"extensions":{
				"KHR_materials_clearcoat":{
					"clearcoatRoughnessFactor":0.03636366128921509
				},
				"KHR_materials_specular":{
					"specularColorFactor":[
						2.0,
						2.0,
						2.0
					]
				},
				"KHR_materials_ior":{
					"ior":1.4500000476837158
				}
			},
			"name":"Engine_1",
			"pbrMetallicRoughness":{
				"baseColorFactor":[
					0,
					0,
					0,
					1
				]
			}
		},
		{
			"doubleSided":true,
			"name":"Body"
		},
		{
			"doubleSided":true,
			"name":"Body_6"
		},
		{
			"doubleSided":true,
			"name":"Body_2"
		},
		{
			"doubleSided":true,
			"name":"Em. Body"
		},
		{
			"doubleSided":true,
			"name":"Glass"
		},
		{
			"doubleSided":true,
			"extensions":{
				"KHR_materials_clearcoat":{
					"clearcoatRoughnessFactor":0.03636366128921509
				},
				"KHR_materials_specular":{
					"specularColorFactor":[
						2.0,
						2.0,
						2.0
					]
				},
				"KHR_materials_ior":{
					"ior":1.4500000476837158
				}
			},
			"name":"Metal",
			"pbrMetallicRoughness":{
				"baseColorFactor":[
					1,
					0.9281811118125916,
					0.9281811118125916,
					1
				]
			}
		},
		{
			"doubleSided":true,
			"name":"Body_3"
		}
	],
	"meshes":[
		{
			"name":"Cube.003",
			"primitives":[
				{
					"attributes":{
						"POSITION":0,
						"NORMAL":1,
						"TEXCOORD_0":2
					},
					"indices":3,
					"material":0
				}
			]
		},
		{
			"name":"Cube.001",
			"primitives":[
				{
					"attributes":{
						"POSITION":4,
						"NORMAL":5,
						"TEXCOORD_0":6
					},
					"indices":7,
					"material":1
				}
			]
		},
		{
			"name":"Cube.002",
			"primitives":[
				{
					"attributes":{
						"POSITION":8,
						"NORMAL":9,
						"TEXCOORD_0":10
					},
					"indices":11,
					"material":2
				}
			]
		},
		{
			"name":"Cube.004",
			"primitives":[
				{
					"attributes":{
						"POSITION":12,
						"NORMAL":13,
						"TEXCOORD_0":14
					},
					"indices":15
				}
			]
		},
		{
			"name":"Cube.005",
			"primitives":[
				{
					"attributes":{
						"POSITION":16,
						"NORMAL":17,
						"TEXCOORD_0":18
					},
					"indices":15
				}
			]
		},
		{
			"name":"Cube.006",
			"primitives":[
				{
					"attributes":{
						"POSITION":19,
						"NORMAL":20,
						"TEXCOORD_0":21
					},
					"indices":15
				}
			]
		},
		{
			"name":"Cube.007",
			"primitives":[
				{
					"attributes":{
						"POSITION":22,
						"NORMAL":23,
						"TEXCOORD_0":24
					},
					"indices":25,
					"material":3
				},
				{
					"attributes":{
						"POSITION":26,
						"NORMAL":27,
						"TEXCOORD_0":28
					},
					"indices":29,
					"material":0
				}
			]
		},
		{
			"name":"Cube.012",
			"primitives":[
				{
					"attributes":{
						"POSITION":30,
						"NORMAL":31,
						"TEXCOORD_0":32
					},
					"indices":33,
					"material":4
				}
			]
		},
		{
			"name":"Cube.013",
			"primitives":[
				{
					"attributes":{
						"POSITION":34,
						"NORMAL":35,
						"TEXCOORD_0":36
					},
					"indices":37,
					"material":5
				}
			]
		},
		{
			"name":"Cube.014",
			"primitives":[
				{
					"attributes":{
						"POSITION":38,
						"NORMAL":39,
						"TEXCOORD_0":40
					},
					"indices":41,
					"material":3
				}
			]
		},
		{
			"name":"Cube.016",
			"primitives":[
				{
					"attributes":{
						"POSITION":42,
						"NORMAL":43,
						"TEXCOORD_0":44
					},
					"indices":45,
					"material":3
				}
			]
		},
		{
			"name":"Cube.017",
			"primitives":[
				{
					"attributes":{
						"POSITION":46,
						"NORMAL":47,
						"TEXCOORD_0":48
					},
					"indices":45,
					"material":3
				}
			]
		},
		{
			"name":"Cube.018",
			"primitives":[
				{
					"attributes":{
						"POSITION":49,
						"NORMAL":50,
						"TEXCOORD_0":51
					},
					"indices":45,
					"material":3
				}
			]
		},
		{
			"name":"Cube.020",
			"primitives":[
				{
					"attributes":{
						"POSITION":52,
						"NORMAL":53,
						"TEXCOORD_0":54
					},
					"indices":55,
					"material":0
				}
			]
		},
		{
			"name":"Cube.021",
			"primitives":[
				{
					"attributes":{
						"POSITION":56,
						"NORMAL":57,
						"TEXCOORD_0":58
					},
					"indices":59,
					"material":0
				}
			]
		},
		{
			"name":"Cube.022",
			"primitives":[
				{
					"attributes":{
						"POSITION":60,
						"NORMAL":61,
						"TEXCOORD_0":62
					},
					"indices":63,
					"material":0
				}
			]
		},
		{
			"name":"Cube.023",
			"primitives":[
				{
					"attributes":{
						"POSITION":64,
						"NORMAL":65,
						"TEXCOORD_0":66
					},
					"indices":63,
					"material":0
				}
			]
		},
		{
			"name":"Cube.024",
			"primitives":[
				{
					"attributes":{
						"POSITION":67,
						"NORMAL":68,
						"TEXCOORD_0":69
					},
					"indices":70,
					"material":0
				}
			]
		},
		{
			"name":"Cube.048",
			"primitives":[
				{
					"attributes":{
						"POSITION":71,
						"NORMAL":72,
						"TEXCOORD_0":73
					},
					"indices":74,
					"material":6
				}
			]
		},
		{
			"name":"Cube.049",
			"primitives":[
				{
					"attributes":{
						"POSITION":75,
						"NORMAL":76,
						"TEXCOORD_0":77
					},
					"indices":78,
					"material":1
				}
			]
		},
		{
			"name":"Cube.050",
			"primitives":[
				{
					"attributes":{
						"POSITION":79,
						"NORMAL":80,
						"TEXCOORD_0":81
					},
					"indices":82,
					"material":2
				}
			]
		},
		{
			"name":"Cube.051",
			"primitives":[
				{
					"attributes":{
						"POSITION":83,
						"NORMAL":84,
						"TEXCOORD_0":85
					},
					"indices":86
				}
			]
		},
		{
			"name":"Cube.052",
			"primitives":[
				{
					"attributes":{
						"POSITION":87,
						"NORMAL":88,
						"TEXCOORD_0":89
					},
					"indices":86
				}
			]
		},
		{
			"name":"Cube.053",
			"primitives":[
				{
					"attributes":{
						"POSITION":90,
						"NORMAL":91,
						"TEXCOORD_0":92
					},
					"indices":86
				}
			]
		},
		{
			"name":"Cube.054",
			"primitives":[
				{
					"attributes":{
						"POSITION":93,
						"NORMAL":94,
						"TEXCOORD_0":95
					},
					"indices":96,
					"material":5
				}
			]
		},
		{
			"name":"Cube.055",
			"primitives":[
				{
					"attributes":{
						"POSITION":97,
						"NORMAL":98,
						"TEXCOORD_0":99
					},
					"indices":100,
					"material":3
				}
			]
		},
		{
			"name":"Cube.056",
			"primitives":[
				{
					"attributes":{
						"POSITION":101,
						"NORMAL":102,
						"TEXCOORD_0":103
					},
					"indices":104,
					"material":3
				}
			]
		},
		{
			"name":"Cube.057",
			"primitives":[
				{
					"attributes":{
						"POSITION":105,
						"NORMAL":106,
						"TEXCOORD_0":107
					},
					"indices":104,
					"material":3
				}
			]
		},
		{
			"name":"Cube.058",
			"primitives":[
				{
					"attributes":{
						"POSITION":108,
						"NORMAL":109,
						"TEXCOORD_0":110
					},
					"indices":104,
					"material":3
				}
			]
		},
		{
			"name":"Cube.059",
			"primitives":[
				{
					"attributes":{
						"POSITION":111,
						"NORMAL":112,
						"TEXCOORD_0":113
					},
					"indices":114,
					"material":6
				}
			]
		},
		{
			"name":"Cube.030",
			"primitives":[
				{
					"attributes":{
						"POSITION":115,
						"NORMAL":116,
						"TEXCOORD_0":117
					},
					"indices":118,
					"material":3
				},
				{
					"attributes":{
						"POSITION":119,
						"NORMAL":120,
						"TEXCOORD_0":121
					},
					"indices":122,
					"material":0
				},
				{
					"attributes":{
						"POSITION":123,
						"NORMAL":124,
						"TEXCOORD_0":125
					},
					"indices":126,
					"material":1
				}
			]
		},
		{
			"name":"Cylinder",
			"primitives":[
				{
					"attributes":{
						"POSITION":127,
						"NORMAL":128,
						"TEXCOORD_0":129,
						"TEXCOORD_1":130
					},
					"indices":131,
					"material":3
				},
				{
					"attributes":{
						"POSITION":132,
						"NORMAL":133,
						"TEXCOORD_0":134,
						"TEXCOORD_1":135
					},
					"indices":136,
					"material":7
				}
			]
		},
		{
			"name":"Cylinder.001",
			"primitives":[
				{
					"attributes":{
						"POSITION":137,
						"NORMAL":138,
						"TEXCOORD_0":139
					},
					"indices":140,
					"material":3
				},
				{
					"attributes":{
						"POSITION":141,
						"NORMAL":142,
						"TEXCOORD_0":143
					},
					"indices":144,
					"material":8
				},
				{
					"attributes":{
						"POSITION":145,
						"NORMAL":146,
						"TEXCOORD_0":147
					},
					"indices":148,
					"material":1
				},
				{
					"attributes":{
						"POSITION":149,
						"NORMAL":150,
						"TEXCOORD_0":151
					},
					"indices":152,
					"material":9
				}
			]
		},
		{
			"name":"Cylinder.002",
			"primitives":[
				{
					"attributes":{
						"POSITION":153,
						"NORMAL":154,
						"TEXCOORD_0":155
					},
					"indices":156,
					"material":2
				},
				{
					"attributes":{
						"POSITION":157,
						"NORMAL":158,
						"TEXCOORD_0":159
					},
					"indices":160,
					"material":8
				}
			]
		},
		{
			"name":"Cylinder.015",
			"primitives":[
				{
					"attributes":{
						"POSITION":161,
						"NORMAL":162,
						"TEXCOORD_0":163
					},
					"indices":164,
					"material":2
				}
			]
		},
		{
			"name":"Cylinder.003",
			"primitives":[
				{
					"attributes":{
						"POSITION":165,
						"NORMAL":166,
						"TEXCOORD_0":167
					},
					"indices":168,
					"material":0
				}
			]
		},
		{
			"name":"Cylinder.007",
			"primitives":[
				{
					"attributes":{
						"POSITION":169,
						"NORMAL":170,
						"TEXCOORD_0":171
					},
					"indices":172,
					"material":7
				}
			]
		},
		{
			"name":"Cylinder.008",
			"primitives":[
				{
					"attributes":{
						"POSITION":173,
						"NORMAL":174,
						"TEXCOORD_0":175
					},
					"indices":176,
					"material":3
				}
			]
		},
		{
			"name":"Cylinder.009",
			"primitives":[
				{
					"attributes":{
						"POSITION":177,
						"NORMAL":178,
						"TEXCOORD_0":179
					},
					"indices":180,
					"material":9
				}
			]
		},
		{
			"name":"Cylinder.010",
			"primitives":[
				{
					"attributes":{
						"POSITION":181,
						"NORMAL":182,
						"TEXCOORD_0":183
					},
					"indices":184,
					"material":9
				}
			]
		},
		{
			"name":"Cylinder.011",
			"primitives":[
				{
					"attributes":{
						"POSITION":185,
						"NORMAL":186,
						"TEXCOORD_0":187
					},
					"indices":184,
					"material":9
				}
			]
		},
		{
			"name":"Cylinder.012",
			"primitives":[
				{
					"attributes":{
						"POSITION":188,
						"NORMAL":189,
						"TEXCOORD_0":190
					},
					"indices":184,
					"material":9
				}
			]
		},
		{
			"name":"Cylinder.111",
			"primitives":[
				{
					"attributes":{
						"POSITION":191,
						"NORMAL":192,
						"TEXCOORD_0":193
					},
					"indices":194,
					"material":3
				},
				{
					"attributes":{
						"POSITION":195,
						"NORMAL":196,
						"TEXCOORD_0":197
					},
					"indices":198,
					"material":8
				},
				{
					"attributes":{
						"POSITION":199,
						"NORMAL":200,
						"TEXCOORD_0":201
					},
					"indices":202,
					"material":1
				},
				{
					"attributes":{
						"POSITION":203,
						"NORMAL":204,
						"TEXCOORD_0":205
					},
					"indices":206,
					"material":9
				}
			]
		},
		{
			"name":"Cylinder.112",
			"primitives":[
				{
					"attributes":{
						"POSITION":207,
						"NORMAL":208,
						"TEXCOORD_0":209
					},
					"indices":210,
					"material":2
				},
				{
					"attributes":{
						"POSITION":211,
						"NORMAL":212,
						"TEXCOORD_0":213
					},
					"indices":214,
					"material":8
				}
			]
		},
		{
			"name":"Cylinder.113",
			"primitives":[
				{
					"attributes":{
						"POSITION":215,
						"NORMAL":216,
						"TEXCOORD_0":217
					},
					"indices":218,
					"material":2
				}
			]
		},
		{
			"name":"Cylinder.114",
			"primitives":[
				{
					"attributes":{
						"POSITION":219,
						"NORMAL":220,
						"TEXCOORD_0":221
					},
					"indices":222,
					"material":9
				}
			]
		},
		{
			"name":"Cylinder.115",
			"primitives":[
				{
					"attributes":{
						"POSITION":223,
						"NORMAL":224,
						"TEXCOORD_0":225
					},
					"indices":226,
					"material":9
				}
			]
		},
		{
			"name":"Cylinder.116",
			"primitives":[
				{
					"attributes":{
						"POSITION":227,
						"NORMAL":228,
						"TEXCOORD_0":229
					},
					"indices":226,
					"material":9
				}
			]
		},
		{
			"name":"Cylinder.117",
			"primitives":[
				{
					"attributes":{
						"POSITION":230,
						"NORMAL":231,
						"TEXCOORD_0":232
					},
					"indices":226,
					"material":9
				}
			]
		},
		{
			"name":"Cylinder.013",
			"primitives":[
				{
					"attributes":{
						"POSITION":233,
						"NORMAL":234,
						"TEXCOORD_0":235
					},
					"indices":236,
					"material":2
				},
				{
					"attributes":{
						"POSITION":237,
						"NORMAL":238,
						"TEXCOORD_0":239
					},
					"indices":240,
					"material":9
				}
			]
		},
		{
			"name":"Cylinder.025",
			"primitives":[
				{
					"attributes":{
						"POSITION":241,
						"NORMAL":242,
						"TEXCOORD_0":243
					},
					"indices":244,
					"material":9
				}
			]
		},
		{
			"name":"Cylinder.016",
			"primitives":[
				{
					"attributes":{
						"POSITION":245,
						"NORMAL":246,
						"TEXCOORD_0":247,
						"TEXCOORD_1":248
					},
					"indices":249,
					"material":5
				}
			]
		},
		{
			"name":"Cylinder.024",
			"primitives":[
				{
					"attributes":{
						"POSITION":250,
						"NORMAL":251,
						"TEXCOORD_0":252,
						"TEXCOORD_1":253
					},
					"indices":254,
					"material":5
				}
			]
		},
		{
			"name":"Cylinder.019",
			"primitives":[
				{
					"attributes":{
						"POSITION":255,
						"NORMAL":256,
						"TEXCOORD_0":257,
						"TEXCOORD_1":258
					},
					"indices":259,
					"material":5
				}
			]
		},
		{
			"name":"Cylinder.022",
			"primitives":[
				{
					"attributes":{
						"POSITION":260,
						"NORMAL":261,
						"TEXCOORD_0":262,
						"TEXCOORD_1":263
					},
					"indices":264,
					"material":5
				}
			]
		},
		{
			"name":"Cylinder.031",
			"primitives":[
				{
					"attributes":{
						"POSITION":265,
						"NORMAL":266,
						"TEXCOORD_0":267
					},
					"indices":268,
					"material":5
				}
			]
		},
		{
			"name":"Cylinder.032",
			"primitives":[
				{
					"attributes":{
						"POSITION":269,
						"NORMAL":270,
						"TEXCOORD_0":271
					},
					"indices":272,
					"material":5
				}
			]
		},
		{
			"name":"Cylinder.020",
			"primitives":[
				{
					"attributes":{
						"POSITION":273,
						"NORMAL":274,
						"TEXCOORD_0":275,
						"TEXCOORD_1":276
					},
					"indices":277,
					"material":5
				}
			]
		},
		{
			"name":"Cylinder.034",
			"primitives":[
				{
					"attributes":{
						"POSITION":278,
						"NORMAL":279,
						"TEXCOORD_0":280
					},
					"indices":281,
					"material":5
				}
			]
		},
		{
			"name":"Cylinder.035",
			"primitives":[
				{
					"attributes":{
						"POSITION":282,
						"NORMAL":283,
						"TEXCOORD_0":284
					},
					"indices":285,
					"material":5
				}
			]
		},
		{
			"name":"NurbsPath",
			"primitives":[
				{
					"attributes":{
						"POSITION":286,
						"NORMAL":287,
						"TEXCOORD_0":288
					},
					"indices":289,
					"material":2
				}
			]
		},
		{
			"name":"NurbsPath.001",
			"primitives":[
				{
					"attributes":{
						"POSITION":290,
						"NORMAL":291,
						"TEXCOORD_0":292
					},
					"indices":293,
					"material":2
				}
			]
		},
		{
			"name":"Plane",
			"primitives":[
				{
					"attributes":{
						"POSITION":294,
						"NORMAL":295,
						"TEXCOORD_0":296
					},
					"indices":297,
					"material":5
				},
				{
					"attributes":{
						"POSITION":298,
						"NORMAL":299,
						"TEXCOORD_0":300
					},
					"indices":301,
					"material":3
				},
				{
					"attributes":{
						"POSITION":302,
						"NORMAL":303,
						"TEXCOORD_0":304
					},
					"indices":305,
					"material":1
				}
			]
		},
		{
			"name":"Plane.002",
			"primitives":[
				{
					"attributes":{
						"POSITION":306,
						"NORMAL":307,
						"TEXCOORD_0":308
					},
					"indices":309,
					"material":5
				},
				{
					"attributes":{
						"POSITION":310,
						"NORMAL":311,
						"TEXCOORD_0":312
					},
					"indices":313,
					"material":3
				},
				{
					"attributes":{
						"POSITION":314,
						"NORMAL":315,
						"TEXCOORD_0":316
					},
					"indices":317,
					"material":1
				}
			]
		}
	],
	"accessors":[
		{
			"bufferView":0,
			"componentType":5126,
			"count":181,
			"max":[
				0.010926770977675915,
				0.1385781466960907,
				0.21555964648723602
			],
			"min":[
				-0.010926664806902409,
				-0.2641555368900299,
				-0.22725620865821838
			],
			"type":"VEC3"
		},
		{
			"bufferView":1,
			"componentType":5126,
			"count":181,
			"type":"VEC3"
		},
		{
			"bufferView":2,
			"componentType":5126,
			"count":181,
			"type":"VEC2"
		},
		{
			"bufferView":3,
			"componentType":5123,
			"count":288,
			"type":"SCALAR"
		},
		{
			"bufferView":4,
			"componentType":5126,
			"count":1368,
			"max":[
				0.7504730820655823,
				0.1789478063583374,
				0.07926995307207108
			],
			"min":[
				-0.7504137754440308,
				-1.322914719581604,
				-0.07927751541137695
			],
			"type":"VEC3"
		},
		{
			"bufferView":5,
			"componentType":5126,
			"count":1368,
			"type":"VEC3"
		},
		{
			"bufferView":6,
			"componentType":5126,
			"count":1368,
			"type":"VEC2"
		},
		{
			"bufferView":7,
			"componentType":5123,
			"count":2052,
			"type":"SCALAR"
		},
		{
			"bufferView":8,
			"componentType":5126,
			"count":1368,
			"max":[
				0.7505548596382141,
				0.7508309483528137,
				0.0792737603187561
			],
			"min":[
				-0.7505545020103455,
				-0.7508590817451477,
				-0.07927384227514267
			],
			"type":"VEC3"
		},
		{
			"bufferView":9,
			"componentType":5126,
			"count":1368,
			"type":"VEC3"
		},
		{
			"bufferView":10,
			"componentType":5126,
			"count":1368,
			"type":"VEC2"
		},
		{
			"bufferView":11,
			"componentType":5123,
			"count":2052,
			"type":"SCALAR"
		},
		{
			"bufferView":12,
			"componentType":5126,
			"count":1368,
			"max":[
				0.4185454547405243,
				0.41869932413101196,
				0.017754802480340004
			],
			"min":[
				-0.4185452163219452,
				-0.41871505975723267,
				-0.017756758257746696
			],
			"type":"VEC3"
		},
		{
			"bufferView":13,
			"componentType":5126,
			"count":1368,
			"type":"VEC3"
		},
		{
			"bufferView":14,
			"componentType":5126,
			"count":1368,
			"type":"VEC2"
		},
		{
			"bufferView":15,
			"componentType":5123,
			"count":2052,
			"type":"SCALAR"
		},
		{
			"bufferView":16,
			"componentType":5126,
			"count":1368,
			"max":[
				0.4185454547405243,
				0.41869932413101196,
				0.017754802480340004
			],
			"min":[
				-0.4185452163219452,
				-0.41871505975723267,
				-0.017756758257746696
			],
			"type":"VEC3"
		},
		{
			"bufferView":17,
			"componentType":5126,
			"count":1368,
			"type":"VEC3"
		},
		{
			"bufferView":18,
			"componentType":5126,
			"count":1368,
			"type":"VEC2"
		},
		{
			"bufferView":19,
			"componentType":5126,
			"count":1368,
			"max":[
				0.4185454547405243,
				0.41869932413101196,
				0.017754802480340004
			],
			"min":[
				-0.4185452163219452,
				-0.41871505975723267,
				-0.017756758257746696
			],
			"type":"VEC3"
		},
		{
			"bufferView":20,
			"componentType":5126,
			"count":1368,
			"type":"VEC3"
		},
		{
			"bufferView":21,
			"componentType":5126,
			"count":1368,
			"type":"VEC2"
		},
		{
			"bufferView":22,
			"componentType":5126,
			"count":123885,
			"max":[
				0.252882719039917,
				4.672613143920898,
				4.5596113204956055
			],
			"min":[
				-0.25288036465644836,
				-1.8807274103164673,
				-2.54559063911438
			],
			"type":"VEC3"
		},
		{
			"bufferView":23,
			"componentType":5126,
			"count":123885,
			"type":"VEC3"
		},
		{
			"bufferView":24,
			"componentType":5126,
			"count":123885,
			"type":"VEC2"
		},
		{
			"bufferView":25,
			"componentType":5125,
			"count":188253,
			"type":"SCALAR"
		},
		{
			"bufferView":26,
			"componentType":5126,
			"count":71851,
			"max":[
				0.2484319508075714,
				4.672688961029053,
				-0.0763377919793129
			],
			"min":[
				-0.2484295666217804,
				-1.5558528900146484,
				-3.2070093154907227
			],
			"type":"VEC3"
		},
		{
			"bufferView":27,
			"componentType":5126,
			"count":71851,
			"type":"VEC3"
		},
		{
			"bufferView":28,
			"componentType":5126,
			"count":71851,
			"type":"VEC2"
		},
		{
			"bufferView":29,
			"componentType":5125,
			"count":110649,
			"type":"SCALAR"
		},
		{
			"bufferView":30,
			"componentType":5126,
			"count":54,
			"max":[
				2.5206856727600098,
				1.8414952754974365,
				7.915033340454102
			],
			"min":[
				-2.5206856727600098,
				-0.6812102198600769,
				-3.8667397499084473
			],
			"type":"VEC3"
		},
		{
			"bufferView":31,
			"componentType":5126,
			"count":54,
			"type":"VEC3"
		},
		{
			"bufferView":32,
			"componentType":5126,
			"count":54,
			"type":"VEC2"
		},
		{
			"bufferView":33,
			"componentType":5123,
			"count":120,
			"type":"SCALAR"
		},
		{
			"bufferView":34,
			"componentType":5126,
			"count":248,
			"max":[
				0.09227213263511658,
				0.7846148014068604,
				1.416659951210022
			],
			"min":[
				-0.12362844496965408,
				-0.8662769794464111,
				-1.070946216583252
			],
			"type":"VEC3"
		},
		{
			"bufferView":35,
			"componentType":5126,
			"count":248,
			"type":"VEC3"
		},
		{
			"bufferView":36,
			"componentType":5126,
			"count":248,
			"type":"VEC2"
		},
		{
			"bufferView":37,
			"componentType":5123,
			"count":372,
			"type":"SCALAR"
		},
		{
			"bufferView":38,
			"componentType":5126,
			"count":97,
			"max":[
				0.25044527649879456,
				0.826557993888855,
				4.1291584968566895
			],
			"min":[
				-0.25044527649879456,
				-0.19829200208187103,
				-4.324605464935303
			],
			"type":"VEC3"
		},
		{
			"bufferView":39,
			"componentType":5126,
			"count":97,
			"type":"VEC3"
		},
		{
			"bufferView":40,
			"componentType":5126,
			"count":97,
			"type":"VEC2"
		},
		{
			"bufferView":41,
			"componentType":5123,
			"count":168,
			"type":"SCALAR"
		},
		{
			"bufferView":42,
			"componentType":5126,
			"count":82,
			"max":[
				0.18484273552894592,
				0.18828116357326508,
				1.2855682373046875
			],
			"min":[
				-0.15219882130622864,
				-0.17991621792316437,
				-1.9738609790802002
			],
			"type":"VEC3"
		},
		{
			"bufferView":43,
			"componentType":5126,
			"count":82,
			"type":"VEC3"
		},
		{
			"bufferView":44,
			"componentType":5126,
			"count":82,
			"type":"VEC2"
		},
		{
			"bufferView":45,
			"componentType":5123,
			"count":132,
			"type":"SCALAR"
		},
		{
			"bufferView":46,
			"componentType":5126,
			"count":82,
			"max":[
				0.17694760859012604,
				0.14880941808223724,
				1.3589938879013062
			],
			"min":[
				-0.1614438146352768,
				-0.2127855122089386,
				-1.9004353284835815
			],
			"type":"VEC3"
		},
		{
			"bufferView":47,
			"componentType":5126,
			"count":82,
			"type":"VEC3"
		},
		{
			"bufferView":48,
			"componentType":5126,
			"count":82,
			"type":"VEC2"
		},
		{
			"bufferView":49,
			"componentType":5126,
			"count":82,
			"max":[
				0.1785181313753128,
				0.1505090892314911,
				1.3589938879013062
			],
			"min":[
				-0.15950332581996918,
				-0.21335002779960632,
				-1.9004353284835815
			],
			"type":"VEC3"
		},
		{
			"bufferView":50,
			"componentType":5126,
			"count":82,
			"type":"VEC3"
		},
		{
			"bufferView":51,
			"componentType":5126,
			"count":82,
			"type":"VEC2"
		},
		{
			"bufferView":52,
			"componentType":5126,
			"count":179,
			"max":[
				0.018459750339388847,
				0.29226401448249817,
				0.3044988512992859
			],
			"min":[
				-0.01845962181687355,
				-0.11913924664258957,
				-0.20193806290626526
			],
			"type":"VEC3"
		},
		{
			"bufferView":53,
			"componentType":5126,
			"count":179,
			"type":"VEC3"
		},
		{
			"bufferView":54,
			"componentType":5126,
			"count":179,
			"type":"VEC2"
		},
		{
			"bufferView":55,
			"componentType":5123,
			"count":288,
			"type":"SCALAR"
		},
		{
			"bufferView":56,
			"componentType":5126,
			"count":181,
			"max":[
				0.018459750339388847,
				0.29226401448249817,
				0.3044988512992859
			],
			"min":[
				-0.01845962181687355,
				-0.12416370213031769,
				-0.20193806290626526
			],
			"type":"VEC3"
		},
		{
			"bufferView":57,
			"componentType":5126,
			"count":181,
			"type":"VEC3"
		},
		{
			"bufferView":58,
			"componentType":5126,
			"count":181,
			"type":"VEC2"
		},
		{
			"bufferView":59,
			"componentType":5123,
			"count":288,
			"type":"SCALAR"
		},
		{
			"bufferView":60,
			"componentType":5126,
			"count":24,
			"max":[
				0.2568809986114502,
				0.2568809986114502,
				0.38411715626716614
			],
			"min":[
				-0.2568809986114502,
				0.02627725340425968,
				-0.38411715626716614
			],
			"type":"VEC3"
		},
		{
			"bufferView":61,
			"componentType":5126,
			"count":24,
			"type":"VEC3"
		},
		{
			"bufferView":62,
			"componentType":5126,
			"count":24,
			"type":"VEC2"
		},
		{
			"bufferView":63,
			"componentType":5123,
			"count":36,
			"type":"SCALAR"
		},
		{
			"bufferView":64,
			"componentType":5126,
			"count":24,
			"max":[
				0.2568809986114502,
				0.2568809986114502,
				0.38411715626716614
			],
			"min":[
				-0.2568809986114502,
				0.02627725340425968,
				-0.38411715626716614
			],
			"type":"VEC3"
		},
		{
			"bufferView":65,
			"componentType":5126,
			"count":24,
			"type":"VEC3"
		},
		{
			"bufferView":66,
			"componentType":5126,
			"count":24,
			"type":"VEC2"
		},
		{
			"bufferView":67,
			"componentType":5126,
			"count":182,
			"max":[
				0.018459731712937355,
				0.22029368579387665,
				0.3044988214969635
			],
			"min":[
				-0.018459636718034744,
				-0.5185405611991882,
				-0.20193804800510406
			],
			"type":"VEC3"
		},
		{
			"bufferView":68,
			"componentType":5126,
			"count":182,
			"type":"VEC3"
		},
		{
			"bufferView":69,
			"componentType":5126,
			"count":182,
			"type":"VEC2"
		},
		{
			"bufferView":70,
			"componentType":5123,
			"count":288,
			"type":"SCALAR"
		},
		{
			"bufferView":71,
			"componentType":5126,
			"count":613,
			"max":[
				0.015370187349617481,
				0.026550209149718285,
				0.11568547785282135
			],
			"min":[
				-0.015876948833465576,
				-0.04213046655058861,
				-0.11178696155548096
			],
			"type":"VEC3"
		},
		{
			"bufferView":72,
			"componentType":5126,
			"count":613,
			"type":"VEC3"
		},
		{
			"bufferView":73,
			"componentType":5126,
			"count":613,
			"type":"VEC2"
		},
		{
			"bufferView":74,
			"componentType":5123,
			"count":1824,
			"type":"SCALAR"
		},
		{
			"bufferView":75,
			"componentType":5126,
			"count":1368,
			"max":[
				0.7504137754440308,
				0.1789478361606598,
				0.07927033305168152
			],
			"min":[
				-0.7504730820655823,
				-1.322914719581604,
				-0.0792774185538292
			],
			"type":"VEC3"
		},
		{
			"bufferView":76,
			"componentType":5126,
			"count":1368,
			"type":"VEC3"
		},
		{
			"bufferView":77,
			"componentType":5126,
			"count":1368,
			"type":"VEC2"
		},
		{
			"bufferView":78,
			"componentType":5123,
			"count":2052,
			"type":"SCALAR"
		},
		{
			"bufferView":79,
			"componentType":5126,
			"count":1368,
			"max":[
				0.7505545020103455,
				0.7508309483528137,
				0.07927390933036804
			],
			"min":[
				-0.7505548596382141,
				-0.7508590817451477,
				-0.07927390187978745
			],
			"type":"VEC3"
		},
		{
			"bufferView":80,
			"componentType":5126,
			"count":1368,
			"type":"VEC3"
		},
		{
			"bufferView":81,
			"componentType":5126,
			"count":1368,
			"type":"VEC2"
		},
		{
			"bufferView":82,
			"componentType":5123,
			"count":2052,
			"type":"SCALAR"
		},
		{
			"bufferView":83,
			"componentType":5126,
			"count":1368,
			"max":[
				0.4185452163219452,
				0.41869932413101196,
				0.017754916101694107
			],
			"min":[
				-0.4185454547405243,
				-0.41871505975723267,
				-0.017756808549165726
			],
			"type":"VEC3"
		},
		{
			"bufferView":84,
			"componentType":5126,
			"count":1368,
			"type":"VEC3"
		},
		{
			"bufferView":85,
			"componentType":5126,
			"count":1368,
			"type":"VEC2"
		},
		{
			"bufferView":86,
			"componentType":5123,
			"count":2052,
			"type":"SCALAR"
		},
		{
			"bufferView":87,
			"componentType":5126,
			"count":1368,
			"max":[
				0.4185452163219452,
				0.41869932413101196,
				0.017754916101694107
			],
			"min":[
				-0.4185454547405243,
				-0.41871505975723267,
				-0.017756808549165726
			],
			"type":"VEC3"
		},
		{
			"bufferView":88,
			"componentType":5126,
			"count":1368,
			"type":"VEC3"
		},
		{
			"bufferView":89,
			"componentType":5126,
			"count":1368,
			"type":"VEC2"
		},
		{
			"bufferView":90,
			"componentType":5126,
			"count":1368,
			"max":[
				0.4185452163219452,
				0.41869932413101196,
				0.017754916101694107
			],
			"min":[
				-0.4185454547405243,
				-0.41871505975723267,
				-0.017756808549165726
			],
			"type":"VEC3"
		},
		{
			"bufferView":91,
			"componentType":5126,
			"count":1368,
			"type":"VEC3"
		},
		{
			"bufferView":92,
			"componentType":5126,
			"count":1368,
			"type":"VEC2"
		},
		{
			"bufferView":93,
			"componentType":5126,
			"count":248,
			"max":[
				0.12362843751907349,
				0.7846145629882812,
				1.4166595935821533
			],
			"min":[
				-0.09227213263511658,
				-0.8662771582603455,
				-1.070946216583252
			],
			"type":"VEC3"
		},
		{
			"bufferView":94,
			"componentType":5126,
			"count":248,
			"type":"VEC3"
		},
		{
			"bufferView":95,
			"componentType":5126,
			"count":248,
			"type":"VEC2"
		},
		{
			"bufferView":96,
			"componentType":5123,
			"count":372,
			"type":"SCALAR"
		},
		{
			"bufferView":97,
			"componentType":5126,
			"count":97,
			"max":[
				0.25044527649879456,
				0.8265592455863953,
				4.1291584968566895
			],
			"min":[
				-0.25044527649879456,
				-0.19829224050045013,
				-4.324605941772461
			],
			"type":"VEC3"
		},
		{
			"bufferView":98,
			"componentType":5126,
			"count":97,
			"type":"VEC3"
		},
		{
			"bufferView":99,
			"componentType":5126,
			"count":97,
			"type":"VEC2"
		},
		{
			"bufferView":100,
			"componentType":5123,
			"count":168,
			"type":"SCALAR"
		},
		{
			"bufferView":101,
			"componentType":5126,
			"count":82,
			"max":[
				0.15219885110855103,
				0.18828153610229492,
				1.2855682373046875
			],
			"min":[
				-0.18484270572662354,
				-0.17991656064987183,
				-1.9738609790802002
			],
			"type":"VEC3"
		},
		{
			"bufferView":102,
			"componentType":5126,
			"count":82,
			"type":"VEC3"
		},
		{
			"bufferView":103,
			"componentType":5126,
			"count":82,
			"type":"VEC2"
		},
		{
			"bufferView":104,
			"componentType":5123,
			"count":132,
			"type":"SCALAR"
		},
		{
			"bufferView":105,
			"componentType":5126,
			"count":82,
			"max":[
				0.161443829536438,
				0.14880982041358948,
				1.3589940071105957
			],
			"min":[
				-0.17694759368896484,
				-0.21278584003448486,
				-1.9004353284835815
			],
			"type":"VEC3"
		},
		{
			"bufferView":106,
			"componentType":5126,
			"count":82,
			"type":"VEC3"
		},
		{
			"bufferView":107,
			"componentType":5126,
			"count":82,
			"type":"VEC2"
		},
		{
			"bufferView":108,
			"componentType":5126,
			"count":82,
			"max":[
				0.15950334072113037,
				0.15050950646400452,
				1.3589940071105957
			],
			"min":[
				-0.1785181164741516,
				-0.2133503556251526,
				-1.9004353284835815
			],
			"type":"VEC3"
		},
		{
			"bufferView":109,
			"componentType":5126,
			"count":82,
			"type":"VEC3"
		},
		{
			"bufferView":110,
			"componentType":5126,
			"count":82,
			"type":"VEC2"
		},
		{
			"bufferView":111,
			"componentType":5126,
			"count":613,
			"max":[
				0.015876904129981995,
				0.026550229638814926,
				0.11568548530340195
			],
			"min":[
				-0.015370162203907967,
				-0.042130500078201294,
				-0.11178695410490036
			],
			"type":"VEC3"
		},
		{
			"bufferView":112,
			"componentType":5126,
			"count":613,
			"type":"VEC3"
		},
		{
			"bufferView":113,
			"componentType":5126,
			"count":613,
			"type":"VEC2"
		},
		{
			"bufferView":114,
			"componentType":5123,
			"count":1824,
			"type":"SCALAR"
		},
		{
			"bufferView":115,
			"componentType":5126,
			"count":254338,
			"max":[
				6.406855583190918,
				0.46445029973983765,
				3.1456003189086914
			],
			"min":[
				-6.406854629516602,
				-0.3581366240978241,
				-1.6882110834121704
			],
			"type":"VEC3"
		},
		{
			"bufferView":116,
			"componentType":5126,
			"count":254338,
			"type":"VEC3"
		},
		{
			"bufferView":117,
			"componentType":5126,
			"count":254338,
			"type":"VEC2"
		},
		{
			"bufferView":118,
			"componentType":5125,
			"count":382260,
			"type":"SCALAR"
		},
		{
			"bufferView":119,
			"componentType":5126,
			"count":124560,
			"max":[
				6.4117231369018555,
				0.45941871404647827,
				0.2396536022424698
			],
			"min":[
				-6.411722183227539,
				-0.33479708433151245,
				-2.180621862411499
			],
			"type":"VEC3"
		},
		{
			"bufferView":120,
			"componentType":5126,
			"count":124560,
			"type":"VEC3"
		},
		{
			"bufferView":121,
			"componentType":5126,
			"count":124560,
			"type":"VEC2"
		},
		{
			"bufferView":122,
			"componentType":5125,
			"count":188064,
			"type":"SCALAR"
		},
		{
			"bufferView":123,
			"componentType":5126,
			"count":788,
			"max":[
				6.406803131103516,
				0.4603923559188843,
				0.2692422866821289
			],
			"min":[
				-6.406802177429199,
				-0.33742356300354004,
				-1.6882110834121704
			],
			"type":"VEC3"
		},
		{
			"bufferView":124,
			"componentType":5126,
			"count":788,
			"type":"VEC3"
		},
		{
			"bufferView":125,
			"componentType":5126,
			"count":788,
			"type":"VEC2"
		},
		{
			"bufferView":126,
			"componentType":5123,
			"count":2340,
			"type":"SCALAR"
		},
		{
			"bufferView":127,
			"componentType":5126,
			"count":164086,
			"max":[
				2.0578596591949463,
				2.131349802017212,
				4.201800346374512
			],
			"min":[
				-2.0578558444976807,
				-2.1257271766662598,
				-29.834383010864258
			],
			"type":"VEC3"
		},
		{
			"bufferView":128,
			"componentType":5126,
			"count":164086,
			"type":"VEC3"
		},
		{
			"bufferView":129,
			"componentType":5126,
			"count":164086,
			"type":"VEC2"
		},
		{
			"bufferView":130,
			"componentType":5126,
			"count":164086,
			"type":"VEC2"
		},
		{
			"bufferView":131,
			"componentType":5125,
			"count":815598,
			"type":"SCALAR"
		},
		{
			"bufferView":132,
			"componentType":5126,
			"count":11942,
			"max":[
				2.0295004844665527,
				0.7695821523666382,
				3.0695011615753174
			],
			"min":[
				-2.029496669769287,
				0.3532295823097229,
				-22.280668258666992
			],
			"type":"VEC3"
		},
		{
			"bufferView":133,
			"componentType":5126,
			"count":11942,
			"type":"VEC3"
		},
		{
			"bufferView":134,
			"componentType":5126,
			"count":11942,
			"type":"VEC2"
		},
		{
			"bufferView":135,
			"componentType":5126,
			"count":11942,
			"type":"VEC2"
		},
		{
			"bufferView":136,
			"componentType":5123,
			"count":34884,
			"type":"SCALAR"
		},
		{
			"bufferView":137,
			"componentType":5126,
			"count":1499,
			"max":[
				1.0764278173446655,
				1.0464506149291992,
				0.9619619250297546
			],
			"min":[
				-1.0764280557632446,
				-1.1068778038024902,
				-2.2875468730926514
			],
			"type":"VEC3"
		},
		{
			"bufferView":138,
			"componentType":5126,
			"count":1499,
			"type":"VEC3"
		},
		{
			"bufferView":139,
			"componentType":5126,
			"count":1499,
			"type":"VEC2"
		},
		{
			"bufferView":140,
			"componentType":5123,
			"count":3600,
			"type":"SCALAR"
		},
		{
			"bufferView":141,
			"componentType":5126,
			"count":553,
			"max":[
				0.9216755032539368,
				0.9209632277488708,
				0.9619619250297546
			],
			"min":[
				-0.9216755032539368,
				-0.9208703637123108,
				0.8778030872344971
			],
			"type":"VEC3"
		},
		{
			"bufferView":142,
			"componentType":5126,
			"count":553,
			"type":"VEC3"
		},
		{
			"bufferView":143,
			"componentType":5126,
			"count":553,
			"type":"VEC2"
		},
		{
			"bufferView":144,
			"componentType":5123,
			"count":900,
			"type":"SCALAR"
		},
		{
			"bufferView":145,
			"componentType":5126,
			"count":300,
			"max":[
				0.8240880370140076,
				0.7759271264076233,
				0.9543076753616333
			],
			"min":[
				-0.8240888118743896,
				-0.8726113438606262,
				-2.2875468730926514
			],
			"type":"VEC3"
		},
		{
			"bufferView":146,
			"componentType":5126,
			"count":300,
			"type":"VEC3"
		},
		{
			"bufferView":147,
			"componentType":5126,
			"count":300,
			"type":"VEC2"
		},
		{
			"bufferView":148,
			"componentType":5123,
			"count":900,
			"type":"SCALAR"
		},
		{
			"bufferView":149,
			"componentType":5126,
			"count":300,
			"max":[
				0.8565375804901123,
				0.8083838224411011,
				-2.2875468730926514
			],
			"min":[
				-0.8565383553504944,
				-0.905068039894104,
				-2.2875468730926514
			],
			"type":"VEC3"
		},
		{
			"bufferView":150,
			"componentType":5126,
			"count":300,
			"type":"VEC3"
		},
		{
			"bufferView":151,
			"componentType":5126,
			"count":300,
			"type":"VEC2"
		},
		{
			"bufferView":152,
			"componentType":5123,
			"count":900,
			"type":"SCALAR"
		},
		{
			"bufferView":153,
			"componentType":5126,
			"count":9105,
			"max":[
				0.4158567488193512,
				0.4159480333328247,
				1.8469395637512207
			],
			"min":[
				-0.4158567488193512,
				-0.41558340191841125,
				-2.309825897216797
			],
			"type":"VEC3"
		},
		{
			"bufferView":154,
			"componentType":5126,
			"count":9105,
			"type":"VEC3"
		},
		{
			"bufferView":155,
			"componentType":5126,
			"count":9105,
			"type":"VEC2"
		},
		{
			"bufferView":156,
			"componentType":5123,
			"count":27147,
			"type":"SCALAR"
		},
		{
			"bufferView":157,
			"componentType":5126,
			"count":57,
			"max":[
				0.08001141250133514,
				0.07002139836549759,
				1.7792333364486694
			],
			"min":[
				-0.0800112783908844,
				-0.0689428523182869,
				1.765363335609436
			],
			"type":"VEC3"
		},
		{
			"bufferView":158,
			"componentType":5126,
			"count":57,
			"type":"VEC3"
		},
		{
			"bufferView":159,
			"componentType":5126,
			"count":57,
			"type":"VEC2"
		},
		{
			"bufferView":160,
			"componentType":5123,
			"count":141,
			"type":"SCALAR"
		},
		{
			"bufferView":161,
			"componentType":5126,
			"count":90,
			"max":[
				0.3688153922557831,
				0.4800938665866852,
				0.17118705809116364
			],
			"min":[
				-0.44905439019203186,
				-0.333716481924057,
				-0.15951746702194214
			],
			"type":"VEC3"
		},
		{
			"bufferView":162,
			"componentType":5126,
			"count":90,
			"type":"VEC3"
		},
		{
			"bufferView":163,
			"componentType":5126,
			"count":90,
			"type":"VEC2"
		},
		{
			"bufferView":164,
			"componentType":5123,
			"count":528,
			"type":"SCALAR"
		},
		{
			"bufferView":165,
			"componentType":5126,
			"count":1011,
			"max":[
				0.9853874444961548,
				0.6024982333183289,
				7.719091892242432
			],
			"min":[
				-0.001814515795558691,
				-1.435166835784912,
				6.4149932861328125
			],
			"type":"VEC3"
		},
		{
			"bufferView":166,
			"componentType":5126,
			"count":1011,
			"type":"VEC3"
		},
		{
			"bufferView":167,
			"componentType":5126,
			"count":1011,
			"type":"VEC2"
		},
		{
			"bufferView":168,
			"componentType":5123,
			"count":2754,
			"type":"SCALAR"
		},
		{
			"bufferView":169,
			"componentType":5126,
			"count":114,
			"max":[
				1.664381742477417,
				1.0959924459457397,
				6.330559253692627
			],
			"min":[
				0.12185969948768616,
				0.5755240321159363,
				4.443917751312256
			],
			"type":"VEC3"
		},
		{
			"bufferView":170,
			"componentType":5126,
			"count":114,
			"type":"VEC3"
		},
		{
			"bufferView":171,
			"componentType":5126,
			"count":114,
			"type":"VEC2"
		},
		{
			"bufferView":172,
			"componentType":5123,
			"count":324,
			"type":"SCALAR"
		},
		{
			"bufferView":173,
			"componentType":5126,
			"count":1330,
			"max":[
				1.8263555765151978,
				1.8523973226547241,
				6.4149932861328125
			],
			"min":[
				-8.003968332559452e-07,
				-1.9242876768112183,
				4.2017998695373535
			],
			"type":"VEC3"
		},
		{
			"bufferView":174,
			"componentType":5126,
			"count":1330,
			"type":"VEC3"
		},
		{
			"bufferView":175,
			"componentType":5126,
			"count":1330,
			"type":"VEC2"
		},
		{
			"bufferView":176,
			"componentType":5123,
			"count":2022,
			"type":"SCALAR"
		},
		{
			"bufferView":177,
			"componentType":5126,
			"count":1920,
			"max":[
				1.6739610433578491,
				0.013834388926625252,
				0.6687734723091125
			],
			"min":[
				-0.013834388926625252,
				-0.10237447172403336,
				-0.2446039617061615
			],
			"type":"VEC3"
		},
		{
			"bufferView":178,
			"componentType":5126,
			"count":1920,
			"type":"VEC3"
		},
		{
			"bufferView":179,
			"componentType":5126,
			"count":1920,
			"type":"VEC2"
		},
		{
			"bufferView":180,
			"componentType":5123,
			"count":3780,
			"type":"SCALAR"
		},
		{
			"bufferView":181,
			"componentType":5126,
			"count":384,
			"max":[
				0.009126975201070309,
				0.009126975201070309,
				0.05383554846048355
			],
			"min":[
				-0.009126975201070309,
				-0.009126976132392883,
				-0.16137279570102692
			],
			"type":"VEC3"
		},
		{
			"bufferView":182,
			"componentType":5126,
			"count":384,
			"type":"VEC3"
		},
		{
			"bufferView":183,
			"componentType":5126,
			"count":384,
			"type":"VEC2"
		},
		{
			"bufferView":184,
			"componentType":5123,
			"count":756,
			"type":"SCALAR"
		},
		{
			"bufferView":185,
			"componentType":5126,
			"count":384,
			"max":[
				0.009126975201070309,
				0.009126975201070309,
				0.05383554846048355
			],
			"min":[
				-0.009126975201070309,
				-0.009126976132392883,
				-0.16137279570102692
			],
			"type":"VEC3"
		},
		{
			"bufferView":186,
			"componentType":5126,
			"count":384,
			"type":"VEC3"
		},
		{
			"bufferView":187,
			"componentType":5126,
			"count":384,
			"type":"VEC2"
		},
		{
			"bufferView":188,
			"componentType":5126,
			"count":384,
			"max":[
				0.009126975201070309,
				0.009126975201070309,
				0.05383554846048355
			],
			"min":[
				-0.009126975201070309,
				-0.009126976132392883,
				-0.16137279570102692
			],
			"type":"VEC3"
		},
		{
			"bufferView":189,
			"componentType":5126,
			"count":384,
			"type":"VEC3"
		},
		{
			"bufferView":190,
			"componentType":5126,
			"count":384,
			"type":"VEC2"
		},
		{
			"bufferView":191,
			"componentType":5126,
			"count":1499,
			"max":[
				1.0764280557632446,
				1.0464506149291992,
				0.9619620442390442
			],
			"min":[
				-1.0764278173446655,
				-1.1068778038024902,
				-2.2875468730926514
			],
			"type":"VEC3"
		},
		{
			"bufferView":192,
			"componentType":5126,
			"count":1499,
			"type":"VEC3"
		},
		{
			"bufferView":193,
			"componentType":5126,
			"count":1499,
			"type":"VEC2"
		},
		{
			"bufferView":194,
			"componentType":5123,
			"count":3600,
			"type":"SCALAR"
		},
		{
			"bufferView":195,
			"componentType":5126,
			"count":553,
			"max":[
				0.9216755032539368,
				0.9209631085395813,
				0.9619620442390442
			],
			"min":[
				-0.9216755032539368,
				-0.9208704829216003,
				0.8778029680252075
			],
			"type":"VEC3"
		},
		{
			"bufferView":196,
			"componentType":5126,
			"count":553,
			"type":"VEC3"
		},
		{
			"bufferView":197,
			"componentType":5126,
			"count":553,
			"type":"VEC2"
		},
		{
			"bufferView":198,
			"componentType":5123,
			"count":900,
			"type":"SCALAR"
		},
		{
			"bufferView":199,
			"componentType":5126,
			"count":300,
			"max":[
				0.8240888118743896,
				0.7759274840354919,
				0.9543077945709229
			],
			"min":[
				-0.8240880370140076,
				-0.8726109862327576,
				-2.2875468730926514
			],
			"type":"VEC3"
		},
		{
			"bufferView":200,
			"componentType":5126,
			"count":300,
			"type":"VEC3"
		},
		{
			"bufferView":201,
			"componentType":5126,
			"count":300,
			"type":"VEC2"
		},
		{
			"bufferView":202,
			"componentType":5123,
			"count":900,
			"type":"SCALAR"
		},
		{
			"bufferView":203,
			"componentType":5126,
			"count":300,
			"max":[
				0.8565383553504944,
				0.8083841800689697,
				-2.2875468730926514
			],
			"min":[
				-0.8565375804901123,
				-0.9050676822662354,
				-2.2875468730926514
			],
			"type":"VEC3"
		},
		{
			"bufferView":204,
			"componentType":5126,
			"count":300,
			"type":"VEC3"
		},
		{
			"bufferView":205,
			"componentType":5126,
			"count":300,
			"type":"VEC2"
		},
		{
			"bufferView":206,
			"componentType":5123,
			"count":900,
			"type":"SCALAR"
		},
		{
			"bufferView":207,
			"componentType":5126,
			"count":9105,
			"max":[
				0.4158567488193512,
				0.4159485101699829,
				1.8469395637512207
			],
			"min":[
				-0.4158567488193512,
				-0.41558295488357544,
				-2.309825897216797
			],
			"type":"VEC3"
		},
		{
			"bufferView":208,
			"componentType":5126,
			"count":9105,
			"type":"VEC3"
		},
		{
			"bufferView":209,
			"componentType":5126,
			"count":9105,
			"type":"VEC2"
		},
		{
			"bufferView":210,
			"componentType":5123,
			"count":27147,
			"type":"SCALAR"
		},
		{
			"bufferView":211,
			"componentType":5126,
			"count":57,
			"max":[
				0.0800112783908844,
				0.07002070546150208,
				1.7792333364486694
			],
			"min":[
				-0.08001141250133514,
				-0.06894353777170181,
				1.765363335609436
			],
			"type":"VEC3"
		},
		{
			"bufferView":212,
			"componentType":5126,
			"count":57,
			"type":"VEC3"
		},
		{
			"bufferView":213,
			"componentType":5126,
			"count":57,
			"type":"VEC2"
		},
		{
			"bufferView":214,
			"componentType":5123,
			"count":141,
			"type":"SCALAR"
		},
		{
			"bufferView":215,
			"componentType":5126,
			"count":90,
			"max":[
				0.449054479598999,
				0.4800938367843628,
				0.17118708789348602
			],
			"min":[
				-0.36881548166275024,
				-0.33371636271476746,
				-0.1595175713300705
			],
			"type":"VEC3"
		},
		{
			"bufferView":216,
			"componentType":5126,
			"count":90,
			"type":"VEC3"
		},
		{
			"bufferView":217,
			"componentType":5126,
			"count":90,
			"type":"VEC2"
		},
		{
			"bufferView":218,
			"componentType":5123,
			"count":528,
			"type":"SCALAR"
		},
		{
			"bufferView":219,
			"componentType":5126,
			"count":1920,
			"max":[
				0.013834388926625252,
				0.013834388926625252,
				0.6687734723091125
			],
			"min":[
				-1.6739610433578491,
				-0.10237449407577515,
				-0.2446039617061615
			],
			"type":"VEC3"
		},
		{
			"bufferView":220,
			"componentType":5126,
			"count":1920,
			"type":"VEC3"
		},
		{
			"bufferView":221,
			"componentType":5126,
			"count":1920,
			"type":"VEC2"
		},
		{
			"bufferView":222,
			"componentType":5123,
			"count":3780,
			"type":"SCALAR"
		},
		{
			"bufferView":223,
			"componentType":5126,
			"count":384,
			"max":[
				0.009126975201070309,
				0.009126975201070309,
				0.05383554846048355
			],
			"min":[
				-0.009126975201070309,
				-0.009126977995038033,
				-0.16137279570102692
			],
			"type":"VEC3"
		},
		{
			"bufferView":224,
			"componentType":5126,
			"count":384,
			"type":"VEC3"
		},
		{
			"bufferView":225,
			"componentType":5126,
			"count":384,
			"type":"VEC2"
		},
		{
			"bufferView":226,
			"componentType":5123,
			"count":756,
			"type":"SCALAR"
		},
		{
			"bufferView":227,
			"componentType":5126,
			"count":384,
			"max":[
				0.009126975201070309,
				0.009126975201070309,
				0.05383554846048355
			],
			"min":[
				-0.009126975201070309,
				-0.009126977995038033,
				-0.16137279570102692
			],
			"type":"VEC3"
		},
		{
			"bufferView":228,
			"componentType":5126,
			"count":384,
			"type":"VEC3"
		},
		{
			"bufferView":229,
			"componentType":5126,
			"count":384,
			"type":"VEC2"
		},
		{
			"bufferView":230,
			"componentType":5126,
			"count":384,
			"max":[
				0.009126975201070309,
				0.009126975201070309,
				0.05383554846048355
			],
			"min":[
				-0.009126975201070309,
				-0.009126977995038033,
				-0.16137279570102692
			],
			"type":"VEC3"
		},
		{
			"bufferView":231,
			"componentType":5126,
			"count":384,
			"type":"VEC3"
		},
		{
			"bufferView":232,
			"componentType":5126,
			"count":384,
			"type":"VEC2"
		},
		{
			"bufferView":233,
			"componentType":5126,
			"count":1800,
			"max":[
				0.2634858787059784,
				0.2575695514678955,
				1.6202276945114136
			],
			"min":[
				-0.26348698139190674,
				-0.6289332509040833,
				-0.08875920623540878
			],
			"type":"VEC3"
		},
		{
			"bufferView":234,
			"componentType":5126,
			"count":1800,
			"type":"VEC3"
		},
		{
			"bufferView":235,
			"componentType":5126,
			"count":1800,
			"type":"VEC2"
		},
		{
			"bufferView":236,
			"componentType":5123,
			"count":2994,
			"type":"SCALAR"
		},
		{
			"bufferView":237,
			"componentType":5126,
			"count":1600,
			"max":[
				0.37129852175712585,
				0.362959623336792,
				0.1250782012939453
			],
			"min":[
				-0.37129852175712585,
				-0.36296001076698303,
				-0.13973508775234222
			],
			"type":"VEC3"
		},
		{
			"bufferView":238,
			"componentType":5126,
			"count":1600,
			"type":"VEC3"
		},
		{
			"bufferView":239,
			"componentType":5126,
			"count":1600,
			"type":"VEC2"
		},
		{
			"bufferView":240,
			"componentType":5123,
			"count":2400,
			"type":"SCALAR"
		},
		{
			"bufferView":241,
			"componentType":5126,
			"count":1660,
			"max":[
				1.4003623723983765,
				0.05476193502545357,
				0.14512431621551514
			],
			"min":[
				-1.400361180305481,
				-0.054762013256549835,
				-0.09161914885044098
			],
			"type":"VEC3"
		},
		{
			"bufferView":242,
			"componentType":5126,
			"count":1660,
			"type":"VEC3"
		},
		{
			"bufferView":243,
			"componentType":5126,
			"count":1660,
			"type":"VEC2"
		},
		{
			"bufferView":244,
			"componentType":5123,
			"count":3024,
			"type":"SCALAR"
		},
		{
			"bufferView":245,
			"componentType":5126,
			"count":8004,
			"max":[
				2.0502490997314453,
				1.5066602230072021,
				3.231051445007324
			],
			"min":[
				1.1806936264038086,
				-0.3863275647163391,
				-22.75404930114746
			],
			"type":"VEC3"
		},
		{
			"bufferView":246,
			"componentType":5126,
			"count":8004,
			"type":"VEC3"
		},
		{
			"bufferView":247,
			"componentType":5126,
			"count":8004,
			"type":"VEC2"
		},
		{
			"bufferView":248,
			"componentType":5126,
			"count":8004,
			"type":"VEC2"
		},
		{
			"bufferView":249,
			"componentType":5123,
			"count":12534,
			"type":"SCALAR"
		},
		{
			"bufferView":250,
			"componentType":5126,
			"count":732,
			"max":[
				1.9216675758361816,
				0.7692626118659973,
				3.0900261402130127
			],
			"min":[
				1.6080060005187988,
				0.5008797645568848,
				-22.301193237304688
			],
			"type":"VEC3"
		},
		{
			"bufferView":251,
			"componentType":5126,
			"count":732,
			"type":"VEC3"
		},
		{
			"bufferView":252,
			"componentType":5126,
			"count":732,
			"type":"VEC2"
		},
		{
			"bufferView":253,
			"componentType":5126,
			"count":732,
			"type":"VEC2"
		},
		{
			"bufferView":254,
			"componentType":5123,
			"count":1218,
			"type":"SCALAR"
		},
		{
			"bufferView":255,
			"componentType":5126,
			"count":2044,
			"max":[
				-1.320112943649292,
				0.06805862486362457,
				0.5736589431762695
			],
			"min":[
				-2.049997091293335,
				-1.6099272966384888,
				-1.5469919443130493
			],
			"type":"VEC3"
		},
		{
			"bufferView":256,
			"componentType":5126,
			"count":2044,
			"type":"VEC3"
		},
		{
			"bufferView":257,
			"componentType":5126,
			"count":2044,
			"type":"VEC2"
		},
		{
			"bufferView":258,
			"componentType":5126,
			"count":2044,
			"type":"VEC2"
		},
		{
			"bufferView":259,
			"componentType":5123,
			"count":3198,
			"type":"SCALAR"
		},
		{
			"bufferView":260,
			"componentType":5126,
			"count":20684,
			"max":[
				2.0343053340911865,
				0.800675094127655,
				1.6126594543457031
			],
			"min":[
				1.7227263450622559,
				0.32213616371154785,
				-20.25304412841797
			],
			"type":"VEC3"
		},
		{
			"bufferView":261,
			"componentType":5126,
			"count":20684,
			"type":"VEC3"
		},
		{
			"bufferView":262,
			"componentType":5126,
			"count":20684,
			"type":"VEC2"
		},
		{
			"bufferView":263,
			"componentType":5126,
			"count":20684,
			"type":"VEC2"
		},
		{
			"bufferView":264,
			"componentType":5123,
			"count":32994,
			"type":"SCALAR"
		},
		{
			"bufferView":265,
			"componentType":5126,
			"count":864,
			"max":[
				0.0020899351220577955,
				0.848037600517273,
				0.3566478192806244
			],
			"min":[
				-0.002090438501909375,
				-0.8480371832847595,
				-0.44209372997283936
			],
			"type":"VEC3"
		},
		{
			"bufferView":266,
			"componentType":5126,
			"count":864,
			"type":"VEC3"
		},
		{
			"bufferView":267,
			"componentType":5126,
			"count":864,
			"type":"VEC2"
		},
		{
			"bufferView":268,
			"componentType":5123,
			"count":1296,
			"type":"SCALAR"
		},
		{
			"bufferView":269,
			"componentType":5126,
			"count":864,
			"max":[
				0.5896064639091492,
				-0.5997691750526428,
				7.605544090270996
			],
			"min":[
				-0.5896064639091492,
				-1.007102370262146,
				6.806882381439209
			],
			"type":"VEC3"
		},
		{
			"bufferView":270,
			"componentType":5126,
			"count":864,
			"type":"VEC3"
		},
		{
			"bufferView":271,
			"componentType":5126,
			"count":864,
			"type":"VEC2"
		},
		{
			"bufferView":272,
			"componentType":5123,
			"count":1296,
			"type":"SCALAR"
		},
		{
			"bufferView":273,
			"componentType":5126,
			"count":2296,
			"max":[
				-0.9617043137550354,
				0.06805737316608429,
				-16.042343139648438
			],
			"min":[
				-1.9629820585250854,
				-1.6099284887313843,
				-18.162992477416992
			],
			"type":"VEC3"
		},
		{
			"bufferView":274,
			"componentType":5126,
			"count":2296,
			"type":"VEC3"
		},
		{
			"bufferView":275,
			"componentType":5126,
			"count":2296,
			"type":"VEC2"
		},
		{
			"bufferView":276,
			"componentType":5126,
			"count":2296,
			"type":"VEC2"
		},
		{
			"bufferView":277,
			"componentType":5123,
			"count":3576,
			"type":"SCALAR"
		},
		{
			"bufferView":278,
			"componentType":5126,
			"count":960,
			"max":[
				0.875739336013794,
				0.002089055022224784,
				0.39347392320632935
			],
			"min":[
				-0.875739336013794,
				-0.0020889409352093935,
				-0.5317949056625366
			],
			"type":"VEC3"
		},
		{
			"bufferView":279,
			"componentType":5126,
			"count":960,
			"type":"VEC3"
		},
		{
			"bufferView":280,
			"componentType":5126,
			"count":960,
			"type":"VEC2"
		},
		{
			"bufferView":281,
			"componentType":5123,
			"count":1440,
			"type":"SCALAR"
		},
		{
			"bufferView":282,
			"componentType":5126,
			"count":864,
			"max":[
				0.5896064639091492,
				0.17443373799324036,
				7.605544090270996
			],
			"min":[
				-0.5896064639091492,
				-0.23290053009986877,
				6.806882381439209
			],
			"type":"VEC3"
		},
		{
			"bufferView":283,
			"componentType":5126,
			"count":864,
			"type":"VEC3"
		},
		{
			"bufferView":284,
			"componentType":5126,
			"count":864,
			"type":"VEC2"
		},
		{
			"bufferView":285,
			"componentType":5123,
			"count":1296,
			"type":"SCALAR"
		},
		{
			"bufferView":286,
			"componentType":5126,
			"count":2924,
			"max":[
				0.6337649822235107,
				0.1175437718629837,
				1.2340556383132935
			],
			"min":[
				-0.6337646842002869,
				-1.149985909461975,
				-1.2268478870391846
			],
			"type":"VEC3"
		},
		{
			"bufferView":287,
			"componentType":5126,
			"count":2924,
			"type":"VEC3"
		},
		{
			"bufferView":288,
			"componentType":5126,
			"count":2924,
			"type":"VEC2"
		},
		{
			"bufferView":289,
			"componentType":5123,
			"count":16320,
			"type":"SCALAR"
		},
		{
			"bufferView":290,
			"componentType":5126,
			"count":2924,
			"max":[
				0.6337648034095764,
				0.11754358559846878,
				1.2340558767318726
			],
			"min":[
				-0.6337648630142212,
				-1.1499861478805542,
				-1.226847767829895
			],
			"type":"VEC3"
		},
		{
			"bufferView":291,
			"componentType":5126,
			"count":2924,
			"type":"VEC3"
		},
		{
			"bufferView":292,
			"componentType":5126,
			"count":2924,
			"type":"VEC2"
		},
		{
			"bufferView":293,
			"componentType":5123,
			"count":16320,
			"type":"SCALAR"
		},
		{
			"bufferView":294,
			"componentType":5126,
			"count":148029,
			"max":[
				6.671619892120361,
				0.40341395139694214,
				5.955921649932861
			],
			"min":[
				-8.656968116760254,
				-1.1186343431472778,
				-4.3645806312561035
			],
			"type":"VEC3"
		},
		{
			"bufferView":295,
			"componentType":5126,
			"count":148029,
			"type":"VEC3"
		},
		{
			"bufferView":296,
			"componentType":5126,
			"count":148029,
			"type":"VEC2"
		},
		{
			"bufferView":297,
			"componentType":5125,
			"count":224922,
			"type":"SCALAR"
		},
		{
			"bufferView":298,
			"componentType":5126,
			"count":110299,
			"max":[
				6.662964820861816,
				0.3901951313018799,
				5.238350868225098
			],
			"min":[
				-8.153800964355469,
				-1.060370922088623,
				-4.2142744064331055
			],
			"type":"VEC3"
		},
		{
			"bufferView":299,
			"componentType":5126,
			"count":110299,
			"type":"VEC3"
		},
		{
			"bufferView":300,
			"componentType":5126,
			"count":110299,
			"type":"VEC2"
		},
		{
			"bufferView":301,
			"componentType":5125,
			"count":166752,
			"type":"SCALAR"
		},
		{
			"bufferView":302,
			"componentType":5126,
			"count":4312,
			"max":[
				6.661137580871582,
				0.3901951313018799,
				5.2449469566345215
			],
			"min":[
				-8.167744636535645,
				-1.062380075454712,
				-4.219250202178955
			],
			"type":"VEC3"
		},
		{
			"bufferView":303,
			"componentType":5126,
			"count":4312,
			"type":"VEC3"
		},
		{
			"bufferView":304,
			"componentType":5126,
			"count":4312,
			"type":"VEC2"
		},
		{
			"bufferView":305,
			"componentType":5123,
			"count":12474,
			"type":"SCALAR"
		},
		{
			"bufferView":306,
			"componentType":5126,
			"count":148033,
			"max":[
				8.656968116760254,
				0.4034130275249481,
				5.955921649932861
			],
			"min":[
				-6.671619892120361,
				-1.1186327934265137,
				-4.3645806312561035
			],
			"type":"VEC3"
		},
		{
			"bufferView":307,
			"componentType":5126,
			"count":148033,
			"type":"VEC3"
		},
		{
			"bufferView":308,
			"componentType":5126,
			"count":148033,
			"type":"VEC2"
		},
		{
			"bufferView":309,
			"componentType":5125,
			"count":224922,
			"type":"SCALAR"
		},
		{
			"bufferView":310,
			"componentType":5126,
			"count":110278,
			"max":[
				8.153800964355469,
				0.39019426703453064,
				5.238350868225098
			],
			"min":[
				-6.662964820861816,
				-1.0603694915771484,
				-4.2142744064331055
			],
			"type":"VEC3"
		},
		{
			"bufferView":311,
			"componentType":5126,
			"count":110278,
			"type":"VEC3"
		},
		{
			"bufferView":312,
			"componentType":5126,
			"count":110278,
			"type":"VEC2"
		},
		{
			"bufferView":313,
			"componentType":5125,
			"count":166752,
			"type":"SCALAR"
		},
		{
			"bufferView":314,
			"componentType":5126,
			"count":4312,
			"max":[
				8.167744636535645,
				0.39019426703453064,
				5.2449469566345215
			],
			"min":[
				-6.661137580871582,
				-1.0623785257339478,
				-4.219250202178955
			],
			"type":"VEC3"
		},
		{
			"bufferView":315,
			"componentType":5126,
			"count":4312,
			"type":"VEC3"
		},
		{
			"bufferView":316,
			"componentType":5126,
			"count":4312,
			"type":"VEC2"
		},
		{
			"bufferView":317,
			"componentType":5123,
			"count":12474,
			"type":"SCALAR"
		}
	],
	"bufferViews":[
		{
			"buffer":0,
			"byteLength":2172,
			"byteOffset":0,
			"target":34962
		},
		{
			"buffer":0,
			"byteLength":2172,
			"byteOffset":2172,
			"target":34962
		},
		{
			"buffer":0,
			"byteLength":1448,
			"byteOffset":4344,
			"target":34962
		},
		{
			"buffer":0,
			"byteLength":576,
			"byteOffset":5792,
			"target":34963
		},
		{
			"buffer":0,
			"byteLength":16416,
			"byteOffset":6368,
			"target":34962
		},
		{
			"buffer":0,
			"byteLength":16416,
			"byteOffset":22784,
			"target":34962
		},
		{
			"buffer":0,
			"byteLength":10944,
			"byteOffset":39200,
			"target":34962
		},
		{
			"buffer":0,
			"byteLength":4104,
			"byteOffset":50144,
			"target":34963
		},
		{
			"buffer":0,
			"byteLength":16416,
			"byteOffset":54248,
			"target":34962
		},
		{
			"buffer":0,
			"byteLength":16416,
			"byteOffset":70664,
			"target":34962
		},
		{
			"buffer":0,
			"byteLength":10944,
			"byteOffset":87080,
			"target":34962
		},
		{
			"buffer":0,
			"byteLength":4104,
			"byteOffset":98024,
			"target":34963
		},
		{
			"buffer":0,
			"byteLength":16416,
			"byteOffset":102128,
			"target":34962
		},
		{
			"buffer":0,
			"byteLength":16416,
			"byteOffset":118544,
			"target":34962
		},
		{
			"buffer":0,
			"byteLength":10944,
			"byteOffset":134960,
			"target":34962
		},
		{
			"buffer":0,
			"byteLength":4104,
			"byteOffset":145904,
			"target":34963
		},
		{
			"buffer":0,
			"byteLength":16416,
			"byteOffset":150008,
			"target":34962
		},
		{
			"buffer":0,
			"byteLength":16416,
			"byteOffset":166424,
			"target":34962
		},
		{
			"buffer":0,
			"byteLength":10944,
			"byteOffset":182840,
			"target":34962
		},
		{
			"buffer":0,
			"byteLength":16416,
			"byteOffset":193784,
			"target":34962
		},
		{
			"buffer":0,
			"byteLength":16416,
			"byteOffset":210200,
			"target":34962
		},
		{
			"buffer":0,
			"byteLength":10944,
			"byteOffset":226616,
			"target":34962
		},
		{
			"buffer":0,
			"byteLength":1486620,
			"byteOffset":237560,
			"target":34962
		},
		{
			"buffer":0,
			"byteLength":1486620,
			"byteOffset":1724180,
			"target":34962
		},
		{
			"buffer":0,
			"byteLength":991080,
			"byteOffset":3210800,
			"target":34962
		},
		{
			"buffer":0,
			"byteLength":753012,
			"byteOffset":4201880,
			"target":34963
		},
		{
			"buffer":0,
			"byteLength":862212,
			"byteOffset":4954892,
			"target":34962
		},
		{
			"buffer":0,
			"byteLength":862212,
			"byteOffset":5817104,
			"target":34962
		},
		{
			"buffer":0,
			"byteLength":574808,
			"byteOffset":6679316,
			"target":34962
		},
		{
			"buffer":0,
			"byteLength":442596,
			"byteOffset":7254124,
			"target":34963
		},
		{
			"buffer":0,
			"byteLength":648,
			"byteOffset":7696720,
			"target":34962
		},
		{
			"buffer":0,
			"byteLength":648,
			"byteOffset":7697368,
			"target":34962
		},
		{
			"buffer":0,
			"byteLength":432,
			"byteOffset":7698016,
			"target":34962
		},
		{
			"buffer":0,
			"byteLength":240,
			"byteOffset":7698448,
			"target":34963
		},
		{
			"buffer":0,
			"byteLength":2976,
			"byteOffset":7698688,
			"target":34962
		},
		{
			"buffer":0,
			"byteLength":2976,
			"byteOffset":7701664,
			"target":34962
		},
		{
			"buffer":0,
			"byteLength":1984,
			"byteOffset":7704640,
			"target":34962
		},
		{
			"buffer":0,
			"byteLength":744,
			"byteOffset":7706624,
			"target":34963
		},
		{
			"buffer":0,
			"byteLength":1164,
			"byteOffset":7707368,
			"target":34962
		},
		{
			"buffer":0,
			"byteLength":1164,
			"byteOffset":7708532,
			"target":34962
		},
		{
			"buffer":0,
			"byteLength":776,
			"byteOffset":7709696,
			"target":34962
		},
		{
			"buffer":0,
			"byteLength":336,
			"byteOffset":7710472,
			"target":34963
		},
		{
			"buffer":0,
			"byteLength":984,
			"byteOffset":7710808,
			"target":34962
		},
		{
			"buffer":0,
			"byteLength":984,
			"byteOffset":7711792,
			"target":34962
		},
		{
			"buffer":0,
			"byteLength":656,
			"byteOffset":7712776,
			"target":34962
		},
		{
			"buffer":0,
			"byteLength":264,
			"byteOffset":7713432,
			"target":34963
		},
		{
			"buffer":0,
			"byteLength":984,
			"byteOffset":7713696,
			"target":34962
		},
		{
			"buffer":0,
			"byteLength":984,
			"byteOffset":7714680,
			"target":34962
		},
		{
			"buffer":0,
			"byteLength":656,
			"byteOffset":7715664,
			"target":34962
		},
		{
			"buffer":0,
			"byteLength":984,
			"byteOffset":7716320,
			"target":34962
		},
		{
			"buffer":0,
			"byteLength":984,
			"byteOffset":7717304,
			"target":34962
		},
		{
			"buffer":0,
			"byteLength":656,
			"byteOffset":7718288,
			"target":34962
		},
		{
			"buffer":0,
			"byteLength":2148,
			"byteOffset":7718944,
			"target":34962
		},
		{
			"buffer":0,
			"byteLength":2148,
			"byteOffset":7721092,
			"target":34962
		},
		{
			"buffer":0,
			"byteLength":1432,
			"byteOffset":7723240,
			"target":34962
		},
		{
			"buffer":0,
			"byteLength":576,
			"byteOffset":7724672,
			"target":34963
		},
		{
			"buffer":0,
			"byteLength":2172,
			"byteOffset":7725248,
			"target":34962
		},
		{
			"buffer":0,
			"byteLength":2172,
			"byteOffset":7727420,
			"target":34962
		},
		{
			"buffer":0,
			"byteLength":1448,
			"byteOffset":7729592,
			"target":34962
		},
		{
			"buffer":0,
			"byteLength":576,
			"byteOffset":7731040,
			"target":34963
		},
		{
			"buffer":0,
			"byteLength":288,
			"byteOffset":7731616,
			"target":34962
		},
		{
			"buffer":0,
			"byteLength":288,
			"byteOffset":7731904,
			"target":34962
		},
		{
			"buffer":0,
			"byteLength":192,
			"byteOffset":7732192,
			"target":34962
		},
		{
			"buffer":0,
			"byteLength":72,
			"byteOffset":7732384,
			"target":34963
		},
		{
			"buffer":0,
			"byteLength":288,
			"byteOffset":7732456,
			"target":34962
		},
		{
			"buffer":0,
			"byteLength":288,
			"byteOffset":7732744,
			"target":34962
		},
		{
			"buffer":0,
			"byteLength":192,
			"byteOffset":7733032,
			"target":34962
		},
		{
			"buffer":0,
			"byteLength":2184,
			"byteOffset":7733224,
			"target":34962
		},
		{
			"buffer":0,
			"byteLength":2184,
			"byteOffset":7735408,
			"target":34962
		},
		{
			"buffer":0,
			"byteLength":1456,
			"byteOffset":7737592,
			"target":34962
		},
		{
			"buffer":0,
			"byteLength":576,
			"byteOffset":7739048,
			"target":34963
		},
		{
			"buffer":0,
			"byteLength":7356,
			"byteOffset":7739624,
			"target":34962
		},
		{
			"buffer":0,
			"byteLength":7356,
			"byteOffset":7746980,
			"target":34962
		},
		{
			"buffer":0,
			"byteLength":4904,
			"byteOffset":7754336,
			"target":34962
		},
		{
			"buffer":0,
			"byteLength":3648,
			"byteOffset":7759240,
			"target":34963
		},
		{
			"buffer":0,
			"byteLength":16416,
			"byteOffset":7762888,
			"target":34962
		},
		{
			"buffer":0,
			"byteLength":16416,
			"byteOffset":7779304,
			"target":34962
		},
		{
			"buffer":0,
			"byteLength":10944,
			"byteOffset":7795720,
			"target":34962
		},
		{
			"buffer":0,
			"byteLength":4104,
			"byteOffset":7806664,
			"target":34963
		},
		{
			"buffer":0,
			"byteLength":16416,
			"byteOffset":7810768,
			"target":34962
		},
		{
			"buffer":0,
			"byteLength":16416,
			"byteOffset":7827184,
			"target":34962
		},
		{
			"buffer":0,
			"byteLength":10944,
			"byteOffset":7843600,
			"target":34962
		},
		{
			"buffer":0,
			"byteLength":4104,
			"byteOffset":7854544,
			"target":34963
		},
		{
			"buffer":0,
			"byteLength":16416,
			"byteOffset":7858648,
			"target":34962
		},
		{
			"buffer":0,
			"byteLength":16416,
			"byteOffset":7875064,
			"target":34962
		},
		{
			"buffer":0,
			"byteLength":10944,
			"byteOffset":7891480,
			"target":34962
		},
		{
			"buffer":0,
			"byteLength":4104,
			"byteOffset":7902424,
			"target":34963
		},
		{
			"buffer":0,
			"byteLength":16416,
			"byteOffset":7906528,
			"target":34962
		},
		{
			"buffer":0,
			"byteLength":16416,
			"byteOffset":7922944,
			"target":34962
		},
		{
			"buffer":0,
			"byteLength":10944,
			"byteOffset":7939360,
			"target":34962
		},
		{
			"buffer":0,
			"byteLength":16416,
			"byteOffset":7950304,
			"target":34962
		},
		{
			"buffer":0,
			"byteLength":16416,
			"byteOffset":7966720,
			"target":34962
		},
		{
			"buffer":0,
			"byteLength":10944,
			"byteOffset":7983136,
			"target":34962
		},
		{
			"buffer":0,
			"byteLength":2976,
			"byteOffset":7994080,
			"target":34962
		},
		{
			"buffer":0,
			"byteLength":2976,
			"byteOffset":7997056,
			"target":34962
		},
		{
			"buffer":0,
			"byteLength":1984,
			"byteOffset":8000032,
			"target":34962
		},
		{
			"buffer":0,
			"byteLength":744,
			"byteOffset":8002016,
			"target":34963
		},
		{
			"buffer":0,
			"byteLength":1164,
			"byteOffset":8002760,
			"target":34962
		},
		{
			"buffer":0,
			"byteLength":1164,
			"byteOffset":8003924,
			"target":34962
		},
		{
			"buffer":0,
			"byteLength":776,
			"byteOffset":8005088,
			"target":34962
		},
		{
			"buffer":0,
			"byteLength":336,
			"byteOffset":8005864,
			"target":34963
		},
		{
			"buffer":0,
			"byteLength":984,
			"byteOffset":8006200,
			"target":34962
		},
		{
			"buffer":0,
			"byteLength":984,
			"byteOffset":8007184,
			"target":34962
		},
		{
			"buffer":0,
			"byteLength":656,
			"byteOffset":8008168,
			"target":34962
		},
		{
			"buffer":0,
			"byteLength":264,
			"byteOffset":8008824,
			"target":34963
		},
		{
			"buffer":0,
			"byteLength":984,
			"byteOffset":8009088,
			"target":34962
		},
		{
			"buffer":0,
			"byteLength":984,
			"byteOffset":8010072,
			"target":34962
		},
		{
			"buffer":0,
			"byteLength":656,
			"byteOffset":8011056,
			"target":34962
		},
		{
			"buffer":0,
			"byteLength":984,
			"byteOffset":8011712,
			"target":34962
		},
		{
			"buffer":0,
			"byteLength":984,
			"byteOffset":8012696,
			"target":34962
		},
		{
			"buffer":0,
			"byteLength":656,
			"byteOffset":8013680,
			"target":34962
		},
		{
			"buffer":0,
			"byteLength":7356,
			"byteOffset":8014336,
			"target":34962
		},
		{
			"buffer":0,
			"byteLength":7356,
			"byteOffset":8021692,
			"target":34962
		},
		{
			"buffer":0,
			"byteLength":4904,
			"byteOffset":8029048,
			"target":34962
		},
		{
			"buffer":0,
			"byteLength":3648,
			"byteOffset":8033952,
			"target":34963
		},
		{
			"buffer":0,
			"byteLength":3052056,
			"byteOffset":8037600,
			"target":34962
		},
		{
			"buffer":0,
			"byteLength":3052056,
			"byteOffset":11089656,
			"target":34962
		},
		{
			"buffer":0,
			"byteLength":2034704,
			"byteOffset":14141712,
			"target":34962
		},
		{
			"buffer":0,
			"byteLength":1529040,
			"byteOffset":16176416,
			"target":34963
		},
		{
			"buffer":0,
			"byteLength":1494720,
			"byteOffset":17705456,
			"target":34962
		},
		{
			"buffer":0,
			"byteLength":1494720,
			"byteOffset":19200176,
			"target":34962
		},
		{
			"buffer":0,
			"byteLength":996480,
			"byteOffset":20694896,
			"target":34962
		},
		{
			"buffer":0,
			"byteLength":752256,
			"byteOffset":21691376,
			"target":34963
		},
		{
			"buffer":0,
			"byteLength":9456,
			"byteOffset":22443632,
			"target":34962
		},
		{
			"buffer":0,
			"byteLength":9456,
			"byteOffset":22453088,
			"target":34962
		},
		{
			"buffer":0,
			"byteLength":6304,
			"byteOffset":22462544,
			"target":34962
		},
		{
			"buffer":0,
			"byteLength":4680,
			"byteOffset":22468848,
			"target":34963
		},
		{
			"buffer":0,
			"byteLength":1969032,
			"byteOffset":22473528,
			"target":34962
		},
		{
			"buffer":0,
			"byteLength":1969032,
			"byteOffset":24442560,
			"target":34962
		},
		{
			"buffer":0,
			"byteLength":1312688,
			"byteOffset":26411592,
			"target":34962
		},
		{
			"buffer":0,
			"byteLength":1312688,
			"byteOffset":27724280,
			"target":34962
		},
		{
			"buffer":0,
			"byteLength":3262392,
			"byteOffset":29036968,
			"target":34963
		},
		{
			"buffer":0,
			"byteLength":143304,
			"byteOffset":32299360,
			"target":34962
		},
		{
			"buffer":0,
			"byteLength":143304,
			"byteOffset":32442664,
			"target":34962
		},
		{
			"buffer":0,
			"byteLength":95536,
			"byteOffset":32585968,
			"target":34962
		},
		{
			"buffer":0,
			"byteLength":95536,
			"byteOffset":32681504,
			"target":34962
		},
		{
			"buffer":0,
			"byteLength":69768,
			"byteOffset":32777040,
			"target":34963
		},
		{
			"buffer":0,
			"byteLength":17988,
			"byteOffset":32846808,
			"target":34962
		},
		{
			"buffer":0,
			"byteLength":17988,
			"byteOffset":32864796,
			"target":34962
		},
		{
			"buffer":0,
			"byteLength":11992,
			"byteOffset":32882784,
			"target":34962
		},
		{
			"buffer":0,
			"byteLength":7200,
			"byteOffset":32894776,
			"target":34963
		},
		{
			"buffer":0,
			"byteLength":6636,
			"byteOffset":32901976,
			"target":34962
		},
		{
			"buffer":0,
			"byteLength":6636,
			"byteOffset":32908612,
			"target":34962
		},
		{
			"buffer":0,
			"byteLength":4424,
			"byteOffset":32915248,
			"target":34962
		},
		{
			"buffer":0,
			"byteLength":1800,
			"byteOffset":32919672,
			"target":34963
		},
		{
			"buffer":0,
			"byteLength":3600,
			"byteOffset":32921472,
			"target":34962
		},
		{
			"buffer":0,
			"byteLength":3600,
			"byteOffset":32925072,
			"target":34962
		},
		{
			"buffer":0,
			"byteLength":2400,
			"byteOffset":32928672,
			"target":34962
		},
		{
			"buffer":0,
			"byteLength":1800,
			"byteOffset":32931072,
			"target":34963
		},
		{
			"buffer":0,
			"byteLength":3600,
			"byteOffset":32932872,
			"target":34962
		},
		{
			"buffer":0,
			"byteLength":3600,
			"byteOffset":32936472,
			"target":34962
		},
		{
			"buffer":0,
			"byteLength":2400,
			"byteOffset":32940072,
			"target":34962
		},
		{
			"buffer":0,
			"byteLength":1800,
			"byteOffset":32942472,
			"target":34963
		},
		{
			"buffer":0,
			"byteLength":109260,
			"byteOffset":32944272,
			"target":34962
		},
		{
			"buffer":0,
			"byteLength":109260,
			"byteOffset":33053532,
			"target":34962
		},
		{
			"buffer":0,
			"byteLength":72840,
			"byteOffset":33162792,
			"target":34962
		},
		{
			"buffer":0,
			"byteLength":54294,
			"byteOffset":33235632,
			"target":34963
		},
		{
			"buffer":0,
			"byteLength":684,
			"byteOffset":33289928,
			"target":34962
		},
		{
			"buffer":0,
			"byteLength":684,
			"byteOffset":33290612,
			"target":34962
		},
		{
			"buffer":0,
			"byteLength":456,
			"byteOffset":33291296,
			"target":34962
		},
		{
			"buffer":0,
			"byteLength":282,
			"byteOffset":33291752,
			"target":34963
		},
		{
			"buffer":0,
			"byteLength":1080,
			"byteOffset":33292036,
			"target":34962
		},
		{
			"buffer":0,
			"byteLength":1080,
			"byteOffset":33293116,
			"target":34962
		},
		{
			"buffer":0,
			"byteLength":720,
			"byteOffset":33294196,
			"target":34962
		},
		{
			"buffer":0,
			"byteLength":1056,
			"byteOffset":33294916,
			"target":34963
		},
		{
			"buffer":0,
			"byteLength":12132,
			"byteOffset":33295972,
			"target":34962
		},
		{
			"buffer":0,
			"byteLength":12132,
			"byteOffset":33308104,
			"target":34962
		},
		{
			"buffer":0,
			"byteLength":8088,
			"byteOffset":33320236,
			"target":34962
		},
		{
			"buffer":0,
			"byteLength":5508,
			"byteOffset":33328324,
			"target":34963
		},
		{
			"buffer":0,
			"byteLength":1368,
			"byteOffset":33333832,
			"target":34962
		},
		{
			"buffer":0,
			"byteLength":1368,
			"byteOffset":33335200,
			"target":34962
		},
		{
			"buffer":0,
			"byteLength":912,
			"byteOffset":33336568,
			"target":34962
		},
		{
			"buffer":0,
			"byteLength":648,
			"byteOffset":33337480,
			"target":34963
		},
		{
			"buffer":0,
			"byteLength":15960,
			"byteOffset":33338128,
			"target":34962
		},
		{
			"buffer":0,
			"byteLength":15960,
			"byteOffset":33354088,
			"target":34962
		},
		{
			"buffer":0,
			"byteLength":10640,
			"byteOffset":33370048,
			"target":34962
		},
		{
			"buffer":0,
			"byteLength":4044,
			"byteOffset":33380688,
			"target":34963
		},
		{
			"buffer":0,
			"byteLength":23040,
			"byteOffset":33384732,
			"target":34962
		},
		{
			"buffer":0,
			"byteLength":23040,
			"byteOffset":33407772,
			"target":34962
		},
		{
			"buffer":0,
			"byteLength":15360,
			"byteOffset":33430812,
			"target":34962
		},
		{
			"buffer":0,
			"byteLength":7560,
			"byteOffset":33446172,
			"target":34963
		},
		{
			"buffer":0,
			"byteLength":4608,
			"byteOffset":33453732,
			"target":34962
		},
		{
			"buffer":0,
			"byteLength":4608,
			"byteOffset":33458340,
			"target":34962
		},
		{
			"buffer":0,
			"byteLength":3072,
			"byteOffset":33462948,
			"target":34962
		},
		{
			"buffer":0,
			"byteLength":1512,
			"byteOffset":33466020,
			"target":34963
		},
		{
			"buffer":0,
			"byteLength":4608,
			"byteOffset":33467532,
			"target":34962
		},
		{
			"buffer":0,
			"byteLength":4608,
			"byteOffset":33472140,
			"target":34962
		},
		{
			"buffer":0,
			"byteLength":3072,
			"byteOffset":33476748,
			"target":34962
		},
		{
			"buffer":0,
			"byteLength":4608,
			"byteOffset":33479820,
			"target":34962
		},
		{
			"buffer":0,
			"byteLength":4608,
			"byteOffset":33484428,
			"target":34962
		},
		{
			"buffer":0,
			"byteLength":3072,
			"byteOffset":33489036,
			"target":34962
		},
		{
			"buffer":0,
			"byteLength":17988,
			"byteOffset":33492108,
			"target":34962
		},
		{
			"buffer":0,
			"byteLength":17988,
			"byteOffset":33510096,
			"target":34962
		},
		{
			"buffer":0,
			"byteLength":11992,
			"byteOffset":33528084,
			"target":34962
		},
		{
			"buffer":0,
			"byteLength":7200,
			"byteOffset":33540076,
			"target":34963
		},
		{
			"buffer":0,
			"byteLength":6636,
			"byteOffset":33547276,
			"target":34962
		},
		{
			"buffer":0,
			"byteLength":6636,
			"byteOffset":33553912,
			"target":34962
		},
		{
			"buffer":0,
			"byteLength":4424,
			"byteOffset":33560548,
			"target":34962
		},
		{
			"buffer":0,
			"byteLength":1800,
			"byteOffset":33564972,
			"target":34963
		},
		{
			"buffer":0,
			"byteLength":3600,
			"byteOffset":33566772,
			"target":34962
		},
		{
			"buffer":0,
			"byteLength":3600,
			"byteOffset":33570372,
			"target":34962
		},
		{
			"buffer":0,
			"byteLength":2400,
			"byteOffset":33573972,
			"target":34962
		},
		{
			"buffer":0,
			"byteLength":1800,
			"byteOffset":33576372,
			"target":34963
		},
		{
			"buffer":0,
			"byteLength":3600,
			"byteOffset":33578172,
			"target":34962
		},
		{
			"buffer":0,
			"byteLength":3600,
			"byteOffset":33581772,
			"target":34962
		},
		{
			"buffer":0,
			"byteLength":2400,
			"byteOffset":33585372,
			"target":34962
		},
		{
			"buffer":0,
			"byteLength":1800,
			"byteOffset":33587772,
			"target":34963
		},
		{
			"buffer":0,
			"byteLength":109260,
			"byteOffset":33589572,
			"target":34962
		},
		{
			"buffer":0,
			"byteLength":109260,
			"byteOffset":33698832,
			"target":34962
		},
		{
			"buffer":0,
			"byteLength":72840,
			"byteOffset":33808092,
			"target":34962
		},
		{
			"buffer":0,
			"byteLength":54294,
			"byteOffset":33880932,
			"target":34963
		},
		{
			"buffer":0,
			"byteLength":684,
			"byteOffset":33935228,
			"target":34962
		},
		{
			"buffer":0,
			"byteLength":684,
			"byteOffset":33935912,
			"target":34962
		},
		{
			"buffer":0,
			"byteLength":456,
			"byteOffset":33936596,
			"target":34962
		},
		{
			"buffer":0,
			"byteLength":282,
			"byteOffset":33937052,
			"target":34963
		},
		{
			"buffer":0,
			"byteLength":1080,
			"byteOffset":33937336,
			"target":34962
		},
		{
			"buffer":0,
			"byteLength":1080,
			"byteOffset":33938416,
			"target":34962
		},
		{
			"buffer":0,
			"byteLength":720,
			"byteOffset":33939496,
			"target":34962
		},
		{
			"buffer":0,
			"byteLength":1056,
			"byteOffset":33940216,
			"target":34963
		},
		{
			"buffer":0,
			"byteLength":23040,
			"byteOffset":33941272,
			"target":34962
		},
		{
			"buffer":0,
			"byteLength":23040,
			"byteOffset":33964312,
			"target":34962
		},
		{
			"buffer":0,
			"byteLength":15360,
			"byteOffset":33987352,
			"target":34962
		},
		{
			"buffer":0,
			"byteLength":7560,
			"byteOffset":34002712,
			"target":34963
		},
		{
			"buffer":0,
			"byteLength":4608,
			"byteOffset":34010272,
			"target":34962
		},
		{
			"buffer":0,
			"byteLength":4608,
			"byteOffset":34014880,
			"target":34962
		},
		{
			"buffer":0,
			"byteLength":3072,
			"byteOffset":34019488,
			"target":34962
		},
		{
			"buffer":0,
			"byteLength":1512,
			"byteOffset":34022560,
			"target":34963
		},
		{
			"buffer":0,
			"byteLength":4608,
			"byteOffset":34024072,
			"target":34962
		},
		{
			"buffer":0,
			"byteLength":4608,
			"byteOffset":34028680,
			"target":34962
		},
		{
			"buffer":0,
			"byteLength":3072,
			"byteOffset":34033288,
			"target":34962
		},
		{
			"buffer":0,
			"byteLength":4608,
			"byteOffset":34036360,
			"target":34962
		},
		{
			"buffer":0,
			"byteLength":4608,
			"byteOffset":34040968,
			"target":34962
		},
		{
			"buffer":0,
			"byteLength":3072,
			"byteOffset":34045576,
			"target":34962
		},
		{
			"buffer":0,
			"byteLength":21600,
			"byteOffset":34048648,
			"target":34962
		},
		{
			"buffer":0,
			"byteLength":21600,
			"byteOffset":34070248,
			"target":34962
		},
		{
			"buffer":0,
			"byteLength":14400,
			"byteOffset":34091848,
			"target":34962
		},
		{
			"buffer":0,
			"byteLength":5988,
			"byteOffset":34106248,
			"target":34963
		},
		{
			"buffer":0,
			"byteLength":19200,
			"byteOffset":34112236,
			"target":34962
		},
		{
			"buffer":0,
			"byteLength":19200,
			"byteOffset":34131436,
			"target":34962
		},
		{
			"buffer":0,
			"byteLength":12800,
			"byteOffset":34150636,
			"target":34962
		},
		{
			"buffer":0,
			"byteLength":4800,
			"byteOffset":34163436,
			"target":34963
		},
		{
			"buffer":0,
			"byteLength":19920,
			"byteOffset":34168236,
			"target":34962
		},
		{
			"buffer":0,
			"byteLength":19920,
			"byteOffset":34188156,
			"target":34962
		},
		{
			"buffer":0,
			"byteLength":13280,
			"byteOffset":34208076,
			"target":34962
		},
		{
			"buffer":0,
			"byteLength":6048,
			"byteOffset":34221356,
			"target":34963
		},
		{
			"buffer":0,
			"byteLength":96048,
			"byteOffset":34227404,
			"target":34962
		},
		{
			"buffer":0,
			"byteLength":96048,
			"byteOffset":34323452,
			"target":34962
		},
		{
			"buffer":0,
			"byteLength":64032,
			"byteOffset":34419500,
			"target":34962
		},
		{
			"buffer":0,
			"byteLength":64032,
			"byteOffset":34483532,
			"target":34962
		},
		{
			"buffer":0,
			"byteLength":25068,
			"byteOffset":34547564,
			"target":34963
		},
		{
			"buffer":0,
			"byteLength":8784,
			"byteOffset":34572632,
			"target":34962
		},
		{
			"buffer":0,
			"byteLength":8784,
			"byteOffset":34581416,
			"target":34962
		},
		{
			"buffer":0,
			"byteLength":5856,
			"byteOffset":34590200,
			"target":34962
		},
		{
			"buffer":0,
			"byteLength":5856,
			"byteOffset":34596056,
			"target":34962
		},
		{
			"buffer":0,
			"byteLength":2436,
			"byteOffset":34601912,
			"target":34963
		},
		{
			"buffer":0,
			"byteLength":24528,
			"byteOffset":34604348,
			"target":34962
		},
		{
			"buffer":0,
			"byteLength":24528,
			"byteOffset":34628876,
			"target":34962
		},
		{
			"buffer":0,
			"byteLength":16352,
			"byteOffset":34653404,
			"target":34962
		},
		{
			"buffer":0,
			"byteLength":16352,
			"byteOffset":34669756,
			"target":34962
		},
		{
			"buffer":0,
			"byteLength":6396,
			"byteOffset":34686108,
			"target":34963
		},
		{
			"buffer":0,
			"byteLength":248208,
			"byteOffset":34692504,
			"target":34962
		},
		{
			"buffer":0,
			"byteLength":248208,
			"byteOffset":34940712,
			"target":34962
		},
		{
			"buffer":0,
			"byteLength":165472,
			"byteOffset":35188920,
			"target":34962
		},
		{
			"buffer":0,
			"byteLength":165472,
			"byteOffset":35354392,
			"target":34962
		},
		{
			"buffer":0,
			"byteLength":65988,
			"byteOffset":35519864,
			"target":34963
		},
		{
			"buffer":0,
			"byteLength":10368,
			"byteOffset":35585852,
			"target":34962
		},
		{
			"buffer":0,
			"byteLength":10368,
			"byteOffset":35596220,
			"target":34962
		},
		{
			"buffer":0,
			"byteLength":6912,
			"byteOffset":35606588,
			"target":34962
		},
		{
			"buffer":0,
			"byteLength":2592,
			"byteOffset":35613500,
			"target":34963
		},
		{
			"buffer":0,
			"byteLength":10368,
			"byteOffset":35616092,
			"target":34962
		},
		{
			"buffer":0,
			"byteLength":10368,
			"byteOffset":35626460,
			"target":34962
		},
		{
			"buffer":0,
			"byteLength":6912,
			"byteOffset":35636828,
			"target":34962
		},
		{
			"buffer":0,
			"byteLength":2592,
			"byteOffset":35643740,
			"target":34963
		},
		{
			"buffer":0,
			"byteLength":27552,
			"byteOffset":35646332,
			"target":34962
		},
		{
			"buffer":0,
			"byteLength":27552,
			"byteOffset":35673884,
			"target":34962
		},
		{
			"buffer":0,
			"byteLength":18368,
			"byteOffset":35701436,
			"target":34962
		},
		{
			"buffer":0,
			"byteLength":18368,
			"byteOffset":35719804,
			"target":34962
		},
		{
			"buffer":0,
			"byteLength":7152,
			"byteOffset":35738172,
			"target":34963
		},
		{
			"buffer":0,
			"byteLength":11520,
			"byteOffset":35745324,
			"target":34962
		},
		{
			"buffer":0,
			"byteLength":11520,
			"byteOffset":35756844,
			"target":34962
		},
		{
			"buffer":0,
			"byteLength":7680,
			"byteOffset":35768364,
			"target":34962
		},
		{
			"buffer":0,
			"byteLength":2880,
			"byteOffset":35776044,
			"target":34963
		},
		{
			"buffer":0,
			"byteLength":10368,
			"byteOffset":35778924,
			"target":34962
		},
		{
			"buffer":0,
			"byteLength":10368,
			"byteOffset":35789292,
			"target":34962
		},
		{
			"buffer":0,
			"byteLength":6912,
			"byteOffset":35799660,
			"target":34962
		},
		{
			"buffer":0,
			"byteLength":2592,
			"byteOffset":35806572,
			"target":34963
		},
		{
			"buffer":0,
			"byteLength":35088,
			"byteOffset":35809164,
			"target":34962
		},
		{
			"buffer":0,
			"byteLength":35088,
			"byteOffset":35844252,
			"target":34962
		},
		{
			"buffer":0,
			"byteLength":23392,
			"byteOffset":35879340,
			"target":34962
		},
		{
			"buffer":0,
			"byteLength":32640,
			"byteOffset":35902732,
			"target":34963
		},
		{
			"buffer":0,
			"byteLength":35088,
			"byteOffset":35935372,
			"target":34962
		},
		{
			"buffer":0,
			"byteLength":35088,
			"byteOffset":35970460,
			"target":34962
		},
		{
			"buffer":0,
			"byteLength":23392,
			"byteOffset":36005548,
			"target":34962
		},
		{
			"buffer":0,
			"byteLength":32640,
			"byteOffset":36028940,
			"target":34963
		},
		{
			"buffer":0,
			"byteLength":1776348,
			"byteOffset":36061580,
			"target":34962
		},
		{
			"buffer":0,
			"byteLength":1776348,
			"byteOffset":37837928,
			"target":34962
		},
		{
			"buffer":0,
			"byteLength":1184232,
			"byteOffset":39614276,
			"target":34962
		},
		{
			"buffer":0,
			"byteLength":899688,
			"byteOffset":40798508,
			"target":34963
		},
		{
			"buffer":0,
			"byteLength":1323588,
			"byteOffset":41698196,
			"target":34962
		},
		{
			"buffer":0,
			"byteLength":1323588,
			"byteOffset":43021784,
			"target":34962
		},
		{
			"buffer":0,
			"byteLength":882392,
			"byteOffset":44345372,
			"target":34962
		},
		{
			"buffer":0,
			"byteLength":667008,
			"byteOffset":45227764,
			"target":34963
		},
		{
			"buffer":0,
			"byteLength":51744,
			"byteOffset":45894772,
			"target":34962
		},
		{
			"buffer":0,
			"byteLength":51744,
			"byteOffset":45946516,
			"target":34962
		},
		{
			"buffer":0,
			"byteLength":34496,
			"byteOffset":45998260,
			"target":34962
		},
		{
			"buffer":0,
			"byteLength":24948,
			"byteOffset":46032756,
			"target":34963
		},
		{
			"buffer":0,
			"byteLength":1776396,
			"byteOffset":46057704,
			"target":34962
		},
		{
			"buffer":0,
			"byteLength":1776396,
			"byteOffset":47834100,
			"target":34962
		},
		{
			"buffer":0,
			"byteLength":1184264,
			"byteOffset":49610496,
			"target":34962
		},
		{
			"buffer":0,
			"byteLength":899688,
			"byteOffset":50794760,
			"target":34963
		},
		{
			"buffer":0,
			"byteLength":1323336,
			"byteOffset":51694448,
			"target":34962
		},
		{
			"buffer":0,
			"byteLength":1323336,
			"byteOffset":53017784,
			"target":34962
		},
		{
			"buffer":0,
			"byteLength":882224,
			"byteOffset":54341120,
			"target":34962
		},
		{
			"buffer":0,
			"byteLength":667008,
			"byteOffset":55223344,
			"target":34963
		},
		{
			"buffer":0,
			"byteLength":51744,
			"byteOffset":55890352,
			"target":34962
		},
		{
			"buffer":0,
			"byteLength":51744,
			"byteOffset":55942096,
			"target":34962
		},
		{
			"buffer":0,
			"byteLength":34496,
			"byteOffset":55993840,
			"target":34962
		},
		{
			"buffer":0,
			"byteLength":24948,
			"byteOffset":56028336,
			"target":34963
		}
	],
	"buffers":[
		{
			"byteLength":56053284,
			"uri":"plane.bin"
		}
	]
}
